<?xml version="1.0" encoding="utf-8" standalone="no"?>
<!DOCTYPE svg PUBLIC "-//W3C//DTD SVG 1.1//EN"
  "http://www.w3.org/Graphics/SVG/1.1/DTD/svg11.dtd">
<svg xmlns:xlink="http://www.w3.org/1999/xlink" width="675.219531pt" height="365.091562pt" viewBox="0 0 675.219531 365.091562" xmlns="http://www.w3.org/2000/svg" version="1.1">
 <metadata>
  <rdf:RDF xmlns:dc="http://purl.org/dc/elements/1.1/" xmlns:cc="http://creativecommons.org/ns#" xmlns:rdf="http://www.w3.org/1999/02/22-rdf-syntax-ns#">
   <cc:Work>
    <dc:type rdf:resource="http://purl.org/dc/dcmitype/StillImage"/>
    <dc:date>2026-03-29T14:28:05.809964</dc:date>
    <dc:format>image/svg+xml</dc:format>
    <dc:creator>
     <cc:Agent>
      <dc:title>Matplotlib v3.9.4, https://matplotlib.org/</dc:title>
     </cc:Agent>
    </dc:creator>
   </cc:Work>
  </rdf:RDF>
 </metadata>
 <defs>
  <style type="text/css">*{stroke-linejoin: round; stroke-linecap: butt}</style>
 </defs>
 <g id="figure_1">
  <g id="patch_1">
   <path d="M 0 365.091562 
L 675.219531 365.091562 
L 675.219531 0 
L 0 0 
z
" style="fill: #ffffff"/>
  </g>
  <g id="axes_1">
   <g id="patch_2">
    <path d="M 41.570938 318.817812 
L 667.270313 318.817812 
L 667.270313 23.837812 
L 41.570938 23.837812 
z
" style="fill: #ffffff"/>
   </g>
   <g id="patch_3">
    <path d="M 70.011818 318.817812 
L 130.956563 318.817812 
L 130.956563 310.243727 
L 70.011818 310.243727 
z
" clip-path="url(#p871992a986)" style="fill: #c46b32"/>
   </g>
   <g id="patch_4">
    <path d="M 154.657296 318.817812 
L 215.602041 318.817812 
L 215.602041 306.114007 
L 154.657296 306.114007 
z
" clip-path="url(#p871992a986)" style="fill: #bc4749"/>
   </g>
   <g id="patch_5">
    <path d="M 239.302775 318.817812 
L 300.247519 318.817812 
L 300.247519 96.206239 
L 239.302775 96.206239 
z
" clip-path="url(#p871992a986)" style="fill: #8a5cf6"/>
   </g>
   <g id="patch_6">
    <path d="M 323.948253 318.817812 
L 384.892997 318.817812 
L 384.892997 82.833812 
L 323.948253 82.833812 
z
" clip-path="url(#p871992a986)" style="fill: #1f77b4"/>
   </g>
   <g id="patch_7">
    <path d="M 408.593731 318.817812 
L 469.538475 318.817812 
L 469.538475 82.833812 
L 408.593731 82.833812 
z
" clip-path="url(#p871992a986)" style="fill: #2a9d8f"/>
   </g>
   <g id="patch_8">
    <path d="M 493.239209 318.817812 
L 554.183954 318.817812 
L 554.183954 152.960391 
L 493.239209 152.960391 
z
" clip-path="url(#p871992a986)" style="fill: #457b9d"/>
   </g>
   <g id="patch_9">
    <path d="M 577.884687 318.817812 
L 638.829432 318.817812 
L 638.829432 224.030906 
L 577.884687 224.030906 
z
" clip-path="url(#p871992a986)" style="fill: #d62828"/>
   </g>
   <g id="matplotlib.axis_1">
    <g id="xtick_1">
     <g id="line2d_1">
      <defs>
       <path id="m999aa373f4" d="M 0 0 
L 0 3.5 
" style="stroke: #000000; stroke-width: 0.8"/>
      </defs>
      <g>
       <use xlink:href="#m999aa373f4" x="100.48419" y="318.817812" style="stroke: #000000; stroke-width: 0.8"/>
      </g>
     </g>
     <g id="text_1">
      <!-- Mind2Web -->
      <g transform="translate(74.356065 333.41625) scale(0.1 -0.1)">
       <defs>
        <path id="DejaVuSans-4d" d="M 628 4666 
L 1569 4666 
L 2759 1491 
L 3956 4666 
L 4897 4666 
L 4897 0 
L 4281 0 
L 4281 4097 
L 3078 897 
L 2444 897 
L 1241 4097 
L 1241 0 
L 628 0 
L 628 4666 
z
" transform="scale(0.015625)"/>
        <path id="DejaVuSans-69" d="M 603 3500 
L 1178 3500 
L 1178 0 
L 603 0 
L 603 3500 
z
M 603 4863 
L 1178 4863 
L 1178 4134 
L 603 4134 
L 603 4863 
z
" transform="scale(0.015625)"/>
        <path id="DejaVuSans-6e" d="M 3513 2113 
L 3513 0 
L 2938 0 
L 2938 2094 
Q 2938 2591 2744 2837 
Q 2550 3084 2163 3084 
Q 1697 3084 1428 2787 
Q 1159 2491 1159 1978 
L 1159 0 
L 581 0 
L 581 3500 
L 1159 3500 
L 1159 2956 
Q 1366 3272 1645 3428 
Q 1925 3584 2291 3584 
Q 2894 3584 3203 3211 
Q 3513 2838 3513 2113 
z
" transform="scale(0.015625)"/>
        <path id="DejaVuSans-64" d="M 2906 2969 
L 2906 4863 
L 3481 4863 
L 3481 0 
L 2906 0 
L 2906 525 
Q 2725 213 2448 61 
Q 2172 -91 1784 -91 
Q 1150 -91 751 415 
Q 353 922 353 1747 
Q 353 2572 751 3078 
Q 1150 3584 1784 3584 
Q 2172 3584 2448 3432 
Q 2725 3281 2906 2969 
z
M 947 1747 
Q 947 1113 1208 752 
Q 1469 391 1925 391 
Q 2381 391 2643 752 
Q 2906 1113 2906 1747 
Q 2906 2381 2643 2742 
Q 2381 3103 1925 3103 
Q 1469 3103 1208 2742 
Q 947 2381 947 1747 
z
" transform="scale(0.015625)"/>
        <path id="DejaVuSans-32" d="M 1228 531 
L 3431 531 
L 3431 0 
L 469 0 
L 469 531 
Q 828 903 1448 1529 
Q 2069 2156 2228 2338 
Q 2531 2678 2651 2914 
Q 2772 3150 2772 3378 
Q 2772 3750 2511 3984 
Q 2250 4219 1831 4219 
Q 1534 4219 1204 4116 
Q 875 4013 500 3803 
L 500 4441 
Q 881 4594 1212 4672 
Q 1544 4750 1819 4750 
Q 2544 4750 2975 4387 
Q 3406 4025 3406 3419 
Q 3406 3131 3298 2873 
Q 3191 2616 2906 2266 
Q 2828 2175 2409 1742 
Q 1991 1309 1228 531 
z
" transform="scale(0.015625)"/>
        <path id="DejaVuSans-57" d="M 213 4666 
L 850 4666 
L 1831 722 
L 2809 4666 
L 3519 4666 
L 4500 722 
L 5478 4666 
L 6119 4666 
L 4947 0 
L 4153 0 
L 3169 4050 
L 2175 0 
L 1381 0 
L 213 4666 
z
" transform="scale(0.015625)"/>
        <path id="DejaVuSans-65" d="M 3597 1894 
L 3597 1613 
L 953 1613 
Q 991 1019 1311 708 
Q 1631 397 2203 397 
Q 2534 397 2845 478 
Q 3156 559 3463 722 
L 3463 178 
Q 3153 47 2828 -22 
Q 2503 -91 2169 -91 
Q 1331 -91 842 396 
Q 353 884 353 1716 
Q 353 2575 817 3079 
Q 1281 3584 2069 3584 
Q 2775 3584 3186 3129 
Q 3597 2675 3597 1894 
z
M 3022 2063 
Q 3016 2534 2758 2815 
Q 2500 3097 2075 3097 
Q 1594 3097 1305 2825 
Q 1016 2553 972 2059 
L 3022 2063 
z
" transform="scale(0.015625)"/>
        <path id="DejaVuSans-62" d="M 3116 1747 
Q 3116 2381 2855 2742 
Q 2594 3103 2138 3103 
Q 1681 3103 1420 2742 
Q 1159 2381 1159 1747 
Q 1159 1113 1420 752 
Q 1681 391 2138 391 
Q 2594 391 2855 752 
Q 3116 1113 3116 1747 
z
M 1159 2969 
Q 1341 3281 1617 3432 
Q 1894 3584 2278 3584 
Q 2916 3584 3314 3078 
Q 3713 2572 3713 1747 
Q 3713 922 3314 415 
Q 2916 -91 2278 -91 
Q 1894 -91 1617 61 
Q 1341 213 1159 525 
L 1159 0 
L 581 0 
L 581 4863 
L 1159 4863 
L 1159 2969 
z
" transform="scale(0.015625)"/>
       </defs>
       <use xlink:href="#DejaVuSans-4d"/>
       <use xlink:href="#DejaVuSans-69" x="86.279297"/>
       <use xlink:href="#DejaVuSans-6e" x="114.0625"/>
       <use xlink:href="#DejaVuSans-64" x="177.441406"/>
       <use xlink:href="#DejaVuSans-32" x="240.917969"/>
       <use xlink:href="#DejaVuSans-57" x="304.541016"/>
       <use xlink:href="#DejaVuSans-65" x="397.542969"/>
       <use xlink:href="#DejaVuSans-62" x="459.066406"/>
      </g>
      <!-- site+task -->
      <g transform="translate(76.739659 344.614062) scale(0.1 -0.1)">
       <defs>
        <path id="DejaVuSans-73" d="M 2834 3397 
L 2834 2853 
Q 2591 2978 2328 3040 
Q 2066 3103 1784 3103 
Q 1356 3103 1142 2972 
Q 928 2841 928 2578 
Q 928 2378 1081 2264 
Q 1234 2150 1697 2047 
L 1894 2003 
Q 2506 1872 2764 1633 
Q 3022 1394 3022 966 
Q 3022 478 2636 193 
Q 2250 -91 1575 -91 
Q 1294 -91 989 -36 
Q 684 19 347 128 
L 347 722 
Q 666 556 975 473 
Q 1284 391 1588 391 
Q 1994 391 2212 530 
Q 2431 669 2431 922 
Q 2431 1156 2273 1281 
Q 2116 1406 1581 1522 
L 1381 1569 
Q 847 1681 609 1914 
Q 372 2147 372 2553 
Q 372 3047 722 3315 
Q 1072 3584 1716 3584 
Q 2034 3584 2315 3537 
Q 2597 3491 2834 3397 
z
" transform="scale(0.015625)"/>
        <path id="DejaVuSans-74" d="M 1172 4494 
L 1172 3500 
L 2356 3500 
L 2356 3053 
L 1172 3053 
L 1172 1153 
Q 1172 725 1289 603 
Q 1406 481 1766 481 
L 2356 481 
L 2356 0 
L 1766 0 
Q 1100 0 847 248 
Q 594 497 594 1153 
L 594 3053 
L 172 3053 
L 172 3500 
L 594 3500 
L 594 4494 
L 1172 4494 
z
" transform="scale(0.015625)"/>
        <path id="DejaVuSans-2b" d="M 2944 4013 
L 2944 2272 
L 4684 2272 
L 4684 1741 
L 2944 1741 
L 2944 0 
L 2419 0 
L 2419 1741 
L 678 1741 
L 678 2272 
L 2419 2272 
L 2419 4013 
L 2944 4013 
z
" transform="scale(0.015625)"/>
        <path id="DejaVuSans-61" d="M 2194 1759 
Q 1497 1759 1228 1600 
Q 959 1441 959 1056 
Q 959 750 1161 570 
Q 1363 391 1709 391 
Q 2188 391 2477 730 
Q 2766 1069 2766 1631 
L 2766 1759 
L 2194 1759 
z
M 3341 1997 
L 3341 0 
L 2766 0 
L 2766 531 
Q 2569 213 2275 61 
Q 1981 -91 1556 -91 
Q 1019 -91 701 211 
Q 384 513 384 1019 
Q 384 1609 779 1909 
Q 1175 2209 1959 2209 
L 2766 2209 
L 2766 2266 
Q 2766 2663 2505 2880 
Q 2244 3097 1772 3097 
Q 1472 3097 1187 3025 
Q 903 2953 641 2809 
L 641 3341 
Q 956 3463 1253 3523 
Q 1550 3584 1831 3584 
Q 2591 3584 2966 3190 
Q 3341 2797 3341 1997 
z
" transform="scale(0.015625)"/>
        <path id="DejaVuSans-6b" d="M 581 4863 
L 1159 4863 
L 1159 1991 
L 2875 3500 
L 3609 3500 
L 1753 1863 
L 3688 0 
L 2938 0 
L 1159 1709 
L 1159 0 
L 581 0 
L 581 4863 
z
" transform="scale(0.015625)"/>
       </defs>
       <use xlink:href="#DejaVuSans-73"/>
       <use xlink:href="#DejaVuSans-69" x="52.099609"/>
       <use xlink:href="#DejaVuSans-74" x="79.882812"/>
       <use xlink:href="#DejaVuSans-65" x="119.091797"/>
       <use xlink:href="#DejaVuSans-2b" x="180.615234"/>
       <use xlink:href="#DejaVuSans-74" x="264.404297"/>
       <use xlink:href="#DejaVuSans-61" x="303.613281"/>
       <use xlink:href="#DejaVuSans-73" x="364.892578"/>
       <use xlink:href="#DejaVuSans-6b" x="416.992188"/>
      </g>
      <!-- offline -->
      <g transform="translate(84.881065 355.811875) scale(0.1 -0.1)">
       <defs>
        <path id="DejaVuSans-6f" d="M 1959 3097 
Q 1497 3097 1228 2736 
Q 959 2375 959 1747 
Q 959 1119 1226 758 
Q 1494 397 1959 397 
Q 2419 397 2687 759 
Q 2956 1122 2956 1747 
Q 2956 2369 2687 2733 
Q 2419 3097 1959 3097 
z
M 1959 3584 
Q 2709 3584 3137 3096 
Q 3566 2609 3566 1747 
Q 3566 888 3137 398 
Q 2709 -91 1959 -91 
Q 1206 -91 779 398 
Q 353 888 353 1747 
Q 353 2609 779 3096 
Q 1206 3584 1959 3584 
z
" transform="scale(0.015625)"/>
        <path id="DejaVuSans-66" d="M 2375 4863 
L 2375 4384 
L 1825 4384 
Q 1516 4384 1395 4259 
Q 1275 4134 1275 3809 
L 1275 3500 
L 2222 3500 
L 2222 3053 
L 1275 3053 
L 1275 0 
L 697 0 
L 697 3053 
L 147 3053 
L 147 3500 
L 697 3500 
L 697 3744 
Q 697 4328 969 4595 
Q 1241 4863 1831 4863 
L 2375 4863 
z
" transform="scale(0.015625)"/>
        <path id="DejaVuSans-6c" d="M 603 4863 
L 1178 4863 
L 1178 0 
L 603 0 
L 603 4863 
z
" transform="scale(0.015625)"/>
       </defs>
       <use xlink:href="#DejaVuSans-6f"/>
       <use xlink:href="#DejaVuSans-66" x="61.181641"/>
       <use xlink:href="#DejaVuSans-66" x="96.386719"/>
       <use xlink:href="#DejaVuSans-6c" x="131.591797"/>
       <use xlink:href="#DejaVuSans-69" x="159.375"/>
       <use xlink:href="#DejaVuSans-6e" x="187.158203"/>
       <use xlink:href="#DejaVuSans-65" x="250.537109"/>
      </g>
     </g>
    </g>
    <g id="xtick_2">
     <g id="line2d_2">
      <g>
       <use xlink:href="#m999aa373f4" x="185.129669" y="318.817812" style="stroke: #000000; stroke-width: 0.8"/>
      </g>
     </g>
     <g id="text_2">
      <!-- Mind2Web -->
      <g transform="translate(159.001544 333.41625) scale(0.1 -0.1)">
       <use xlink:href="#DejaVuSans-4d"/>
       <use xlink:href="#DejaVuSans-69" x="86.279297"/>
       <use xlink:href="#DejaVuSans-6e" x="114.0625"/>
       <use xlink:href="#DejaVuSans-64" x="177.441406"/>
       <use xlink:href="#DejaVuSans-32" x="240.917969"/>
       <use xlink:href="#DejaVuSans-57" x="304.541016"/>
       <use xlink:href="#DejaVuSans-65" x="397.542969"/>
       <use xlink:href="#DejaVuSans-62" x="459.066406"/>
      </g>
      <!-- hierarchy -->
      <g transform="translate(161.55545 344.614062) scale(0.1 -0.1)">
       <defs>
        <path id="DejaVuSans-68" d="M 3513 2113 
L 3513 0 
L 2938 0 
L 2938 2094 
Q 2938 2591 2744 2837 
Q 2550 3084 2163 3084 
Q 1697 3084 1428 2787 
Q 1159 2491 1159 1978 
L 1159 0 
L 581 0 
L 581 4863 
L 1159 4863 
L 1159 2956 
Q 1366 3272 1645 3428 
Q 1925 3584 2291 3584 
Q 2894 3584 3203 3211 
Q 3513 2838 3513 2113 
z
" transform="scale(0.015625)"/>
        <path id="DejaVuSans-72" d="M 2631 2963 
Q 2534 3019 2420 3045 
Q 2306 3072 2169 3072 
Q 1681 3072 1420 2755 
Q 1159 2438 1159 1844 
L 1159 0 
L 581 0 
L 581 3500 
L 1159 3500 
L 1159 2956 
Q 1341 3275 1631 3429 
Q 1922 3584 2338 3584 
Q 2397 3584 2469 3576 
Q 2541 3569 2628 3553 
L 2631 2963 
z
" transform="scale(0.015625)"/>
        <path id="DejaVuSans-63" d="M 3122 3366 
L 3122 2828 
Q 2878 2963 2633 3030 
Q 2388 3097 2138 3097 
Q 1578 3097 1268 2742 
Q 959 2388 959 1747 
Q 959 1106 1268 751 
Q 1578 397 2138 397 
Q 2388 397 2633 464 
Q 2878 531 3122 666 
L 3122 134 
Q 2881 22 2623 -34 
Q 2366 -91 2075 -91 
Q 1284 -91 818 406 
Q 353 903 353 1747 
Q 353 2603 823 3093 
Q 1294 3584 2113 3584 
Q 2378 3584 2631 3529 
Q 2884 3475 3122 3366 
z
" transform="scale(0.015625)"/>
        <path id="DejaVuSans-79" d="M 2059 -325 
Q 1816 -950 1584 -1140 
Q 1353 -1331 966 -1331 
L 506 -1331 
L 506 -850 
L 844 -850 
Q 1081 -850 1212 -737 
Q 1344 -625 1503 -206 
L 1606 56 
L 191 3500 
L 800 3500 
L 1894 763 
L 2988 3500 
L 3597 3500 
L 2059 -325 
z
" transform="scale(0.015625)"/>
       </defs>
       <use xlink:href="#DejaVuSans-68"/>
       <use xlink:href="#DejaVuSans-69" x="63.378906"/>
       <use xlink:href="#DejaVuSans-65" x="91.162109"/>
       <use xlink:href="#DejaVuSans-72" x="152.685547"/>
       <use xlink:href="#DejaVuSans-61" x="193.798828"/>
       <use xlink:href="#DejaVuSans-72" x="255.078125"/>
       <use xlink:href="#DejaVuSans-63" x="293.941406"/>
       <use xlink:href="#DejaVuSans-68" x="348.921875"/>
       <use xlink:href="#DejaVuSans-79" x="412.300781"/>
      </g>
      <!-- best -->
      <g transform="translate(174.314044 355.811875) scale(0.1 -0.1)">
       <use xlink:href="#DejaVuSans-62"/>
       <use xlink:href="#DejaVuSans-65" x="63.476562"/>
       <use xlink:href="#DejaVuSans-73" x="125"/>
       <use xlink:href="#DejaVuSans-74" x="177.099609"/>
      </g>
     </g>
    </g>
    <g id="xtick_3">
     <g id="line2d_3">
      <g>
       <use xlink:href="#m999aa373f4" x="269.775147" y="318.817812" style="stroke: #000000; stroke-width: 0.8"/>
      </g>
     </g>
     <g id="text_3">
      <!-- WorkArena -->
      <g transform="translate(242.442334 333.41625) scale(0.1 -0.1)">
       <defs>
        <path id="DejaVuSans-41" d="M 2188 4044 
L 1331 1722 
L 3047 1722 
L 2188 4044 
z
M 1831 4666 
L 2547 4666 
L 4325 0 
L 3669 0 
L 3244 1197 
L 1141 1197 
L 716 0 
L 50 0 
L 1831 4666 
z
" transform="scale(0.015625)"/>
       </defs>
       <use xlink:href="#DejaVuSans-57"/>
       <use xlink:href="#DejaVuSans-6f" x="93.001953"/>
       <use xlink:href="#DejaVuSans-72" x="154.183594"/>
       <use xlink:href="#DejaVuSans-6b" x="195.296875"/>
       <use xlink:href="#DejaVuSans-41" x="253.207031"/>
       <use xlink:href="#DejaVuSans-72" x="321.615234"/>
       <use xlink:href="#DejaVuSans-65" x="360.478516"/>
       <use xlink:href="#DejaVuSans-6e" x="422.001953"/>
       <use xlink:href="#DejaVuSans-61" x="485.380859"/>
      </g>
      <!-- service catalog -->
      <g transform="translate(231.814991 344.614062) scale(0.1 -0.1)">
       <defs>
        <path id="DejaVuSans-76" d="M 191 3500 
L 800 3500 
L 1894 563 
L 2988 3500 
L 3597 3500 
L 2284 0 
L 1503 0 
L 191 3500 
z
" transform="scale(0.015625)"/>
        <path id="DejaVuSans-20" transform="scale(0.015625)"/>
        <path id="DejaVuSans-67" d="M 2906 1791 
Q 2906 2416 2648 2759 
Q 2391 3103 1925 3103 
Q 1463 3103 1205 2759 
Q 947 2416 947 1791 
Q 947 1169 1205 825 
Q 1463 481 1925 481 
Q 2391 481 2648 825 
Q 2906 1169 2906 1791 
z
M 3481 434 
Q 3481 -459 3084 -895 
Q 2688 -1331 1869 -1331 
Q 1566 -1331 1297 -1286 
Q 1028 -1241 775 -1147 
L 775 -588 
Q 1028 -725 1275 -790 
Q 1522 -856 1778 -856 
Q 2344 -856 2625 -561 
Q 2906 -266 2906 331 
L 2906 616 
Q 2728 306 2450 153 
Q 2172 0 1784 0 
Q 1141 0 747 490 
Q 353 981 353 1791 
Q 353 2603 747 3093 
Q 1141 3584 1784 3584 
Q 2172 3584 2450 3431 
Q 2728 3278 2906 2969 
L 2906 3500 
L 3481 3500 
L 3481 434 
z
" transform="scale(0.015625)"/>
       </defs>
       <use xlink:href="#DejaVuSans-73"/>
       <use xlink:href="#DejaVuSans-65" x="52.099609"/>
       <use xlink:href="#DejaVuSans-72" x="113.623047"/>
       <use xlink:href="#DejaVuSans-76" x="154.736328"/>
       <use xlink:href="#DejaVuSans-69" x="213.916016"/>
       <use xlink:href="#DejaVuSans-63" x="241.699219"/>
       <use xlink:href="#DejaVuSans-65" x="296.679688"/>
       <use xlink:href="#DejaVuSans-20" x="358.203125"/>
       <use xlink:href="#DejaVuSans-63" x="389.990234"/>
       <use xlink:href="#DejaVuSans-61" x="444.970703"/>
       <use xlink:href="#DejaVuSans-74" x="506.25"/>
       <use xlink:href="#DejaVuSans-61" x="545.458984"/>
       <use xlink:href="#DejaVuSans-6c" x="606.738281"/>
       <use xlink:href="#DejaVuSans-6f" x="634.521484"/>
       <use xlink:href="#DejaVuSans-67" x="695.703125"/>
      </g>
      <!-- real-browser -->
      <g transform="translate(238.496241 355.811875) scale(0.1 -0.1)">
       <defs>
        <path id="DejaVuSans-2d" d="M 313 2009 
L 1997 2009 
L 1997 1497 
L 313 1497 
L 313 2009 
z
" transform="scale(0.015625)"/>
        <path id="DejaVuSans-77" d="M 269 3500 
L 844 3500 
L 1563 769 
L 2278 3500 
L 2956 3500 
L 3675 769 
L 4391 3500 
L 4966 3500 
L 4050 0 
L 3372 0 
L 2619 2869 
L 1863 0 
L 1184 0 
L 269 3500 
z
" transform="scale(0.015625)"/>
       </defs>
       <use xlink:href="#DejaVuSans-72"/>
       <use xlink:href="#DejaVuSans-65" x="38.863281"/>
       <use xlink:href="#DejaVuSans-61" x="100.386719"/>
       <use xlink:href="#DejaVuSans-6c" x="161.666016"/>
       <use xlink:href="#DejaVuSans-2d" x="189.449219"/>
       <use xlink:href="#DejaVuSans-62" x="225.533203"/>
       <use xlink:href="#DejaVuSans-72" x="289.009766"/>
       <use xlink:href="#DejaVuSans-6f" x="327.873047"/>
       <use xlink:href="#DejaVuSans-77" x="389.054688"/>
       <use xlink:href="#DejaVuSans-73" x="470.841797"/>
       <use xlink:href="#DejaVuSans-65" x="522.941406"/>
       <use xlink:href="#DejaVuSans-72" x="584.464844"/>
      </g>
     </g>
    </g>
    <g id="xtick_4">
     <g id="line2d_4">
      <g>
       <use xlink:href="#m999aa373f4" x="354.420625" y="318.817812" style="stroke: #000000; stroke-width: 0.8"/>
      </g>
     </g>
     <g id="text_4">
      <!-- MiniWoB -->
      <g transform="translate(333.019844 333.41625) scale(0.1 -0.1)">
       <defs>
        <path id="DejaVuSans-42" d="M 1259 2228 
L 1259 519 
L 2272 519 
Q 2781 519 3026 730 
Q 3272 941 3272 1375 
Q 3272 1813 3026 2020 
Q 2781 2228 2272 2228 
L 1259 2228 
z
M 1259 4147 
L 1259 2741 
L 2194 2741 
Q 2656 2741 2882 2914 
Q 3109 3088 3109 3444 
Q 3109 3797 2882 3972 
Q 2656 4147 2194 4147 
L 1259 4147 
z
M 628 4666 
L 2241 4666 
Q 2963 4666 3353 4366 
Q 3744 4066 3744 3513 
Q 3744 3084 3544 2831 
Q 3344 2578 2956 2516 
Q 3422 2416 3680 2098 
Q 3938 1781 3938 1306 
Q 3938 681 3513 340 
Q 3088 0 2303 0 
L 628 0 
L 628 4666 
z
" transform="scale(0.015625)"/>
       </defs>
       <use xlink:href="#DejaVuSans-4d"/>
       <use xlink:href="#DejaVuSans-69" x="86.279297"/>
       <use xlink:href="#DejaVuSans-6e" x="114.0625"/>
       <use xlink:href="#DejaVuSans-69" x="177.441406"/>
       <use xlink:href="#DejaVuSans-57" x="205.224609"/>
       <use xlink:href="#DejaVuSans-6f" x="298.226562"/>
       <use xlink:href="#DejaVuSans-42" x="359.408203"/>
      </g>
      <!-- replay -->
      <g transform="translate(338.814375 344.614062) scale(0.1 -0.1)">
       <defs>
        <path id="DejaVuSans-70" d="M 1159 525 
L 1159 -1331 
L 581 -1331 
L 581 3500 
L 1159 3500 
L 1159 2969 
Q 1341 3281 1617 3432 
Q 1894 3584 2278 3584 
Q 2916 3584 3314 3078 
Q 3713 2572 3713 1747 
Q 3713 922 3314 415 
Q 2916 -91 2278 -91 
Q 1894 -91 1617 61 
Q 1341 213 1159 525 
z
M 3116 1747 
Q 3116 2381 2855 2742 
Q 2594 3103 2138 3103 
Q 1681 3103 1420 2742 
Q 1159 2381 1159 1747 
Q 1159 1113 1420 752 
Q 1681 391 2138 391 
Q 2594 391 2855 752 
Q 3116 1113 3116 1747 
z
" transform="scale(0.015625)"/>
       </defs>
       <use xlink:href="#DejaVuSans-72"/>
       <use xlink:href="#DejaVuSans-65" x="38.863281"/>
       <use xlink:href="#DejaVuSans-70" x="100.386719"/>
       <use xlink:href="#DejaVuSans-6c" x="163.863281"/>
       <use xlink:href="#DejaVuSans-61" x="191.646484"/>
       <use xlink:href="#DejaVuSans-79" x="252.925781"/>
      </g>
      <!-- upper bound -->
      <g transform="translate(322.437031 355.811875) scale(0.1 -0.1)">
       <defs>
        <path id="DejaVuSans-75" d="M 544 1381 
L 544 3500 
L 1119 3500 
L 1119 1403 
Q 1119 906 1312 657 
Q 1506 409 1894 409 
Q 2359 409 2629 706 
Q 2900 1003 2900 1516 
L 2900 3500 
L 3475 3500 
L 3475 0 
L 2900 0 
L 2900 538 
Q 2691 219 2414 64 
Q 2138 -91 1772 -91 
Q 1169 -91 856 284 
Q 544 659 544 1381 
z
M 1991 3584 
L 1991 3584 
z
" transform="scale(0.015625)"/>
       </defs>
       <use xlink:href="#DejaVuSans-75"/>
       <use xlink:href="#DejaVuSans-70" x="63.378906"/>
       <use xlink:href="#DejaVuSans-70" x="126.855469"/>
       <use xlink:href="#DejaVuSans-65" x="190.332031"/>
       <use xlink:href="#DejaVuSans-72" x="251.855469"/>
       <use xlink:href="#DejaVuSans-20" x="292.96875"/>
       <use xlink:href="#DejaVuSans-62" x="324.755859"/>
       <use xlink:href="#DejaVuSans-6f" x="388.232422"/>
       <use xlink:href="#DejaVuSans-75" x="449.414062"/>
       <use xlink:href="#DejaVuSans-6e" x="512.792969"/>
       <use xlink:href="#DejaVuSans-64" x="576.171875"/>
      </g>
     </g>
    </g>
    <g id="xtick_5">
     <g id="line2d_5">
      <g>
       <use xlink:href="#m999aa373f4" x="439.066103" y="318.817812" style="stroke: #000000; stroke-width: 0.8"/>
      </g>
     </g>
     <g id="text_5">
      <!-- MiniWoB -->
      <g transform="translate(417.665322 333.41625) scale(0.1 -0.1)">
       <use xlink:href="#DejaVuSans-4d"/>
       <use xlink:href="#DejaVuSans-69" x="86.279297"/>
       <use xlink:href="#DejaVuSans-6e" x="114.0625"/>
       <use xlink:href="#DejaVuSans-69" x="177.441406"/>
       <use xlink:href="#DejaVuSans-57" x="205.224609"/>
       <use xlink:href="#DejaVuSans-6f" x="298.226562"/>
       <use xlink:href="#DejaVuSans-42" x="359.408203"/>
      </g>
      <!-- local live -->
      <g transform="translate(417.012197 344.614062) scale(0.1 -0.1)">
       <use xlink:href="#DejaVuSans-6c"/>
       <use xlink:href="#DejaVuSans-6f" x="27.783203"/>
       <use xlink:href="#DejaVuSans-63" x="88.964844"/>
       <use xlink:href="#DejaVuSans-61" x="143.945312"/>
       <use xlink:href="#DejaVuSans-6c" x="205.224609"/>
       <use xlink:href="#DejaVuSans-20" x="233.007812"/>
       <use xlink:href="#DejaVuSans-6c" x="264.794922"/>
       <use xlink:href="#DejaVuSans-69" x="292.578125"/>
       <use xlink:href="#DejaVuSans-76" x="320.361328"/>
       <use xlink:href="#DejaVuSans-65" x="379.541016"/>
      </g>
      <!-- 2-step -->
      <g transform="translate(423.265322 355.811875) scale(0.1 -0.1)">
       <use xlink:href="#DejaVuSans-32"/>
       <use xlink:href="#DejaVuSans-2d" x="63.623047"/>
       <use xlink:href="#DejaVuSans-73" x="99.707031"/>
       <use xlink:href="#DejaVuSans-74" x="151.806641"/>
       <use xlink:href="#DejaVuSans-65" x="191.015625"/>
       <use xlink:href="#DejaVuSans-70" x="252.539062"/>
      </g>
     </g>
    </g>
    <g id="xtick_6">
     <g id="line2d_6">
      <g>
       <use xlink:href="#m999aa373f4" x="523.711581" y="318.817812" style="stroke: #000000; stroke-width: 0.8"/>
      </g>
     </g>
     <g id="text_6">
      <!-- MiniWoB -->
      <g transform="translate(502.3108 333.41625) scale(0.1 -0.1)">
       <use xlink:href="#DejaVuSans-4d"/>
       <use xlink:href="#DejaVuSans-69" x="86.279297"/>
       <use xlink:href="#DejaVuSans-6e" x="114.0625"/>
       <use xlink:href="#DejaVuSans-69" x="177.441406"/>
       <use xlink:href="#DejaVuSans-57" x="205.224609"/>
       <use xlink:href="#DejaVuSans-6f" x="298.226562"/>
       <use xlink:href="#DejaVuSans-42" x="359.408203"/>
      </g>
      <!-- global live -->
      <g transform="translate(498.058456 344.614062) scale(0.1 -0.1)">
       <use xlink:href="#DejaVuSans-67"/>
       <use xlink:href="#DejaVuSans-6c" x="63.476562"/>
       <use xlink:href="#DejaVuSans-6f" x="91.259766"/>
       <use xlink:href="#DejaVuSans-62" x="152.441406"/>
       <use xlink:href="#DejaVuSans-61" x="215.917969"/>
       <use xlink:href="#DejaVuSans-6c" x="277.197266"/>
       <use xlink:href="#DejaVuSans-20" x="304.980469"/>
       <use xlink:href="#DejaVuSans-6c" x="336.767578"/>
       <use xlink:href="#DejaVuSans-69" x="364.550781"/>
       <use xlink:href="#DejaVuSans-76" x="392.333984"/>
       <use xlink:href="#DejaVuSans-65" x="451.513672"/>
      </g>
      <!-- 2-step -->
      <g transform="translate(507.9108 355.811875) scale(0.1 -0.1)">
       <use xlink:href="#DejaVuSans-32"/>
       <use xlink:href="#DejaVuSans-2d" x="63.623047"/>
       <use xlink:href="#DejaVuSans-73" x="99.707031"/>
       <use xlink:href="#DejaVuSans-74" x="151.806641"/>
       <use xlink:href="#DejaVuSans-65" x="191.015625"/>
       <use xlink:href="#DejaVuSans-70" x="252.539062"/>
      </g>
     </g>
    </g>
    <g id="xtick_7">
     <g id="line2d_7">
      <g>
       <use xlink:href="#m999aa373f4" x="608.35706" y="318.817812" style="stroke: #000000; stroke-width: 0.8"/>
      </g>
     </g>
     <g id="text_7">
      <!-- MiniWoB -->
      <g transform="translate(586.956278 333.41625) scale(0.1 -0.1)">
       <use xlink:href="#DejaVuSans-4d"/>
       <use xlink:href="#DejaVuSans-69" x="86.279297"/>
       <use xlink:href="#DejaVuSans-6e" x="114.0625"/>
       <use xlink:href="#DejaVuSans-69" x="177.441406"/>
       <use xlink:href="#DejaVuSans-57" x="205.224609"/>
       <use xlink:href="#DejaVuSans-6f" x="298.226562"/>
       <use xlink:href="#DejaVuSans-42" x="359.408203"/>
      </g>
      <!-- global live -->
      <g transform="translate(582.703935 344.614062) scale(0.1 -0.1)">
       <use xlink:href="#DejaVuSans-67"/>
       <use xlink:href="#DejaVuSans-6c" x="63.476562"/>
       <use xlink:href="#DejaVuSans-6f" x="91.259766"/>
       <use xlink:href="#DejaVuSans-62" x="152.441406"/>
       <use xlink:href="#DejaVuSans-61" x="215.917969"/>
       <use xlink:href="#DejaVuSans-6c" x="277.197266"/>
       <use xlink:href="#DejaVuSans-20" x="304.980469"/>
       <use xlink:href="#DejaVuSans-6c" x="336.767578"/>
       <use xlink:href="#DejaVuSans-69" x="364.550781"/>
       <use xlink:href="#DejaVuSans-76" x="392.333984"/>
       <use xlink:href="#DejaVuSans-65" x="451.513672"/>
      </g>
      <!-- 1-step -->
      <g transform="translate(592.556278 355.811875) scale(0.1 -0.1)">
       <defs>
        <path id="DejaVuSans-31" d="M 794 531 
L 1825 531 
L 1825 4091 
L 703 3866 
L 703 4441 
L 1819 4666 
L 2450 4666 
L 2450 531 
L 3481 531 
L 3481 0 
L 794 0 
L 794 531 
z
" transform="scale(0.015625)"/>
       </defs>
       <use xlink:href="#DejaVuSans-31"/>
       <use xlink:href="#DejaVuSans-2d" x="63.623047"/>
       <use xlink:href="#DejaVuSans-73" x="99.707031"/>
       <use xlink:href="#DejaVuSans-74" x="151.806641"/>
       <use xlink:href="#DejaVuSans-65" x="191.015625"/>
       <use xlink:href="#DejaVuSans-70" x="252.539062"/>
      </g>
     </g>
    </g>
   </g>
   <g id="matplotlib.axis_2">
    <g id="ytick_1">
     <g id="line2d_8">
      <path d="M 41.570938 318.817812 
L 667.270313 318.817812 
" clip-path="url(#p871992a986)" style="fill: none; stroke: #b0b0b0; stroke-opacity: 0.25; stroke-width: 0.8; stroke-linecap: square"/>
     </g>
     <g id="line2d_9">
      <defs>
       <path id="m59545b3b5f" d="M 0 0 
L -3.5 0 
" style="stroke: #000000; stroke-width: 0.8"/>
      </defs>
      <g>
       <use xlink:href="#m59545b3b5f" x="41.570938" y="318.817812" style="stroke: #000000; stroke-width: 0.8"/>
      </g>
     </g>
     <g id="text_8">
      <!-- 0 -->
      <g transform="translate(28.208438 322.617031) scale(0.1 -0.1)">
       <defs>
        <path id="DejaVuSans-30" d="M 2034 4250 
Q 1547 4250 1301 3770 
Q 1056 3291 1056 2328 
Q 1056 1369 1301 889 
Q 1547 409 2034 409 
Q 2525 409 2770 889 
Q 3016 1369 3016 2328 
Q 3016 3291 2770 3770 
Q 2525 4250 2034 4250 
z
M 2034 4750 
Q 2819 4750 3233 4129 
Q 3647 3509 3647 2328 
Q 3647 1150 3233 529 
Q 2819 -91 2034 -91 
Q 1250 -91 836 529 
Q 422 1150 422 2328 
Q 422 3509 836 4129 
Q 1250 4750 2034 4750 
z
" transform="scale(0.015625)"/>
       </defs>
       <use xlink:href="#DejaVuSans-30"/>
      </g>
     </g>
    </g>
    <g id="ytick_2">
     <g id="line2d_10">
      <path d="M 41.570938 279.487146 
L 667.270313 279.487146 
" clip-path="url(#p871992a986)" style="fill: none; stroke: #b0b0b0; stroke-opacity: 0.25; stroke-width: 0.8; stroke-linecap: square"/>
     </g>
     <g id="line2d_11">
      <g>
       <use xlink:href="#m59545b3b5f" x="41.570938" y="279.487146" style="stroke: #000000; stroke-width: 0.8"/>
      </g>
     </g>
     <g id="text_9">
      <!-- 10 -->
      <g transform="translate(21.845938 283.286365) scale(0.1 -0.1)">
       <use xlink:href="#DejaVuSans-31"/>
       <use xlink:href="#DejaVuSans-30" x="63.623047"/>
      </g>
     </g>
    </g>
    <g id="ytick_3">
     <g id="line2d_12">
      <path d="M 41.570938 240.156479 
L 667.270313 240.156479 
" clip-path="url(#p871992a986)" style="fill: none; stroke: #b0b0b0; stroke-opacity: 0.25; stroke-width: 0.8; stroke-linecap: square"/>
     </g>
     <g id="line2d_13">
      <g>
       <use xlink:href="#m59545b3b5f" x="41.570938" y="240.156479" style="stroke: #000000; stroke-width: 0.8"/>
      </g>
     </g>
     <g id="text_10">
      <!-- 20 -->
      <g transform="translate(21.845938 243.955698) scale(0.1 -0.1)">
       <use xlink:href="#DejaVuSans-32"/>
       <use xlink:href="#DejaVuSans-30" x="63.623047"/>
      </g>
     </g>
    </g>
    <g id="ytick_4">
     <g id="line2d_14">
      <path d="M 41.570938 200.825812 
L 667.270313 200.825812 
" clip-path="url(#p871992a986)" style="fill: none; stroke: #b0b0b0; stroke-opacity: 0.25; stroke-width: 0.8; stroke-linecap: square"/>
     </g>
     <g id="line2d_15">
      <g>
       <use xlink:href="#m59545b3b5f" x="41.570938" y="200.825812" style="stroke: #000000; stroke-width: 0.8"/>
      </g>
     </g>
     <g id="text_11">
      <!-- 30 -->
      <g transform="translate(21.845938 204.625031) scale(0.1 -0.1)">
       <defs>
        <path id="DejaVuSans-33" d="M 2597 2516 
Q 3050 2419 3304 2112 
Q 3559 1806 3559 1356 
Q 3559 666 3084 287 
Q 2609 -91 1734 -91 
Q 1441 -91 1130 -33 
Q 819 25 488 141 
L 488 750 
Q 750 597 1062 519 
Q 1375 441 1716 441 
Q 2309 441 2620 675 
Q 2931 909 2931 1356 
Q 2931 1769 2642 2001 
Q 2353 2234 1838 2234 
L 1294 2234 
L 1294 2753 
L 1863 2753 
Q 2328 2753 2575 2939 
Q 2822 3125 2822 3475 
Q 2822 3834 2567 4026 
Q 2313 4219 1838 4219 
Q 1578 4219 1281 4162 
Q 984 4106 628 3988 
L 628 4550 
Q 988 4650 1302 4700 
Q 1616 4750 1894 4750 
Q 2613 4750 3031 4423 
Q 3450 4097 3450 3541 
Q 3450 3153 3228 2886 
Q 3006 2619 2597 2516 
z
" transform="scale(0.015625)"/>
       </defs>
       <use xlink:href="#DejaVuSans-33"/>
       <use xlink:href="#DejaVuSans-30" x="63.623047"/>
      </g>
     </g>
    </g>
    <g id="ytick_5">
     <g id="line2d_16">
      <path d="M 41.570938 161.495146 
L 667.270313 161.495146 
" clip-path="url(#p871992a986)" style="fill: none; stroke: #b0b0b0; stroke-opacity: 0.25; stroke-width: 0.8; stroke-linecap: square"/>
     </g>
     <g id="line2d_17">
      <g>
       <use xlink:href="#m59545b3b5f" x="41.570938" y="161.495146" style="stroke: #000000; stroke-width: 0.8"/>
      </g>
     </g>
     <g id="text_12">
      <!-- 40 -->
      <g transform="translate(21.845938 165.294365) scale(0.1 -0.1)">
       <defs>
        <path id="DejaVuSans-34" d="M 2419 4116 
L 825 1625 
L 2419 1625 
L 2419 4116 
z
M 2253 4666 
L 3047 4666 
L 3047 1625 
L 3713 1625 
L 3713 1100 
L 3047 1100 
L 3047 0 
L 2419 0 
L 2419 1100 
L 313 1100 
L 313 1709 
L 2253 4666 
z
" transform="scale(0.015625)"/>
       </defs>
       <use xlink:href="#DejaVuSans-34"/>
       <use xlink:href="#DejaVuSans-30" x="63.623047"/>
      </g>
     </g>
    </g>
    <g id="ytick_6">
     <g id="line2d_18">
      <path d="M 41.570938 122.164479 
L 667.270313 122.164479 
" clip-path="url(#p871992a986)" style="fill: none; stroke: #b0b0b0; stroke-opacity: 0.25; stroke-width: 0.8; stroke-linecap: square"/>
     </g>
     <g id="line2d_19">
      <g>
       <use xlink:href="#m59545b3b5f" x="41.570938" y="122.164479" style="stroke: #000000; stroke-width: 0.8"/>
      </g>
     </g>
     <g id="text_13">
      <!-- 50 -->
      <g transform="translate(21.845938 125.963698) scale(0.1 -0.1)">
       <defs>
        <path id="DejaVuSans-35" d="M 691 4666 
L 3169 4666 
L 3169 4134 
L 1269 4134 
L 1269 2991 
Q 1406 3038 1543 3061 
Q 1681 3084 1819 3084 
Q 2600 3084 3056 2656 
Q 3513 2228 3513 1497 
Q 3513 744 3044 326 
Q 2575 -91 1722 -91 
Q 1428 -91 1123 -41 
Q 819 9 494 109 
L 494 744 
Q 775 591 1075 516 
Q 1375 441 1709 441 
Q 2250 441 2565 725 
Q 2881 1009 2881 1497 
Q 2881 1984 2565 2268 
Q 2250 2553 1709 2553 
Q 1456 2553 1204 2497 
Q 953 2441 691 2322 
L 691 4666 
z
" transform="scale(0.015625)"/>
       </defs>
       <use xlink:href="#DejaVuSans-35"/>
       <use xlink:href="#DejaVuSans-30" x="63.623047"/>
      </g>
     </g>
    </g>
    <g id="ytick_7">
     <g id="line2d_20">
      <path d="M 41.570938 82.833812 
L 667.270313 82.833812 
" clip-path="url(#p871992a986)" style="fill: none; stroke: #b0b0b0; stroke-opacity: 0.25; stroke-width: 0.8; stroke-linecap: square"/>
     </g>
     <g id="line2d_21">
      <g>
       <use xlink:href="#m59545b3b5f" x="41.570938" y="82.833812" style="stroke: #000000; stroke-width: 0.8"/>
      </g>
     </g>
     <g id="text_14">
      <!-- 60 -->
      <g transform="translate(21.845938 86.633031) scale(0.1 -0.1)">
       <defs>
        <path id="DejaVuSans-36" d="M 2113 2584 
Q 1688 2584 1439 2293 
Q 1191 2003 1191 1497 
Q 1191 994 1439 701 
Q 1688 409 2113 409 
Q 2538 409 2786 701 
Q 3034 994 3034 1497 
Q 3034 2003 2786 2293 
Q 2538 2584 2113 2584 
z
M 3366 4563 
L 3366 3988 
Q 3128 4100 2886 4159 
Q 2644 4219 2406 4219 
Q 1781 4219 1451 3797 
Q 1122 3375 1075 2522 
Q 1259 2794 1537 2939 
Q 1816 3084 2150 3084 
Q 2853 3084 3261 2657 
Q 3669 2231 3669 1497 
Q 3669 778 3244 343 
Q 2819 -91 2113 -91 
Q 1303 -91 875 529 
Q 447 1150 447 2328 
Q 447 3434 972 4092 
Q 1497 4750 2381 4750 
Q 2619 4750 2861 4703 
Q 3103 4656 3366 4563 
z
" transform="scale(0.015625)"/>
       </defs>
       <use xlink:href="#DejaVuSans-36"/>
       <use xlink:href="#DejaVuSans-30" x="63.623047"/>
      </g>
     </g>
    </g>
    <g id="ytick_8">
     <g id="line2d_22">
      <path d="M 41.570938 43.503146 
L 667.270313 43.503146 
" clip-path="url(#p871992a986)" style="fill: none; stroke: #b0b0b0; stroke-opacity: 0.25; stroke-width: 0.8; stroke-linecap: square"/>
     </g>
     <g id="line2d_23">
      <g>
       <use xlink:href="#m59545b3b5f" x="41.570938" y="43.503146" style="stroke: #000000; stroke-width: 0.8"/>
      </g>
     </g>
     <g id="text_15">
      <!-- 70 -->
      <g transform="translate(21.845938 47.302365) scale(0.1 -0.1)">
       <defs>
        <path id="DejaVuSans-37" d="M 525 4666 
L 3525 4666 
L 3525 4397 
L 1831 0 
L 1172 0 
L 2766 4134 
L 525 4134 
L 525 4666 
z
" transform="scale(0.015625)"/>
       </defs>
       <use xlink:href="#DejaVuSans-37"/>
       <use xlink:href="#DejaVuSans-30" x="63.623047"/>
      </g>
     </g>
    </g>
    <g id="text_16">
     <!-- Decision Reduction (%) -->
     <g transform="translate(15.558281 235.251562) rotate(-90) scale(0.11 -0.11)">
      <defs>
       <path id="DejaVuSans-44" d="M 1259 4147 
L 1259 519 
L 2022 519 
Q 2988 519 3436 956 
Q 3884 1394 3884 2338 
Q 3884 3275 3436 3711 
Q 2988 4147 2022 4147 
L 1259 4147 
z
M 628 4666 
L 1925 4666 
Q 3281 4666 3915 4102 
Q 4550 3538 4550 2338 
Q 4550 1131 3912 565 
Q 3275 0 1925 0 
L 628 0 
L 628 4666 
z
" transform="scale(0.015625)"/>
       <path id="DejaVuSans-52" d="M 2841 2188 
Q 3044 2119 3236 1894 
Q 3428 1669 3622 1275 
L 4263 0 
L 3584 0 
L 2988 1197 
Q 2756 1666 2539 1819 
Q 2322 1972 1947 1972 
L 1259 1972 
L 1259 0 
L 628 0 
L 628 4666 
L 2053 4666 
Q 2853 4666 3247 4331 
Q 3641 3997 3641 3322 
Q 3641 2881 3436 2590 
Q 3231 2300 2841 2188 
z
M 1259 4147 
L 1259 2491 
L 2053 2491 
Q 2509 2491 2742 2702 
Q 2975 2913 2975 3322 
Q 2975 3731 2742 3939 
Q 2509 4147 2053 4147 
L 1259 4147 
z
" transform="scale(0.015625)"/>
       <path id="DejaVuSans-28" d="M 1984 4856 
Q 1566 4138 1362 3434 
Q 1159 2731 1159 2009 
Q 1159 1288 1364 580 
Q 1569 -128 1984 -844 
L 1484 -844 
Q 1016 -109 783 600 
Q 550 1309 550 2009 
Q 550 2706 781 3412 
Q 1013 4119 1484 4856 
L 1984 4856 
z
" transform="scale(0.015625)"/>
       <path id="DejaVuSans-25" d="M 4653 2053 
Q 4381 2053 4226 1822 
Q 4072 1591 4072 1178 
Q 4072 772 4226 539 
Q 4381 306 4653 306 
Q 4919 306 5073 539 
Q 5228 772 5228 1178 
Q 5228 1588 5073 1820 
Q 4919 2053 4653 2053 
z
M 4653 2450 
Q 5147 2450 5437 2106 
Q 5728 1763 5728 1178 
Q 5728 594 5436 251 
Q 5144 -91 4653 -91 
Q 4153 -91 3862 251 
Q 3572 594 3572 1178 
Q 3572 1766 3864 2108 
Q 4156 2450 4653 2450 
z
M 1428 4353 
Q 1159 4353 1004 4120 
Q 850 3888 850 3481 
Q 850 3069 1003 2837 
Q 1156 2606 1428 2606 
Q 1700 2606 1854 2837 
Q 2009 3069 2009 3481 
Q 2009 3884 1853 4118 
Q 1697 4353 1428 4353 
z
M 4250 4750 
L 4750 4750 
L 1831 -91 
L 1331 -91 
L 4250 4750 
z
M 1428 4750 
Q 1922 4750 2215 4408 
Q 2509 4066 2509 3481 
Q 2509 2891 2217 2550 
Q 1925 2209 1428 2209 
Q 931 2209 642 2551 
Q 353 2894 353 3481 
Q 353 4063 643 4406 
Q 934 4750 1428 4750 
z
" transform="scale(0.015625)"/>
       <path id="DejaVuSans-29" d="M 513 4856 
L 1013 4856 
Q 1481 4119 1714 3412 
Q 1947 2706 1947 2009 
Q 1947 1309 1714 600 
Q 1481 -109 1013 -844 
L 513 -844 
Q 928 -128 1133 580 
Q 1338 1288 1338 2009 
Q 1338 2731 1133 3434 
Q 928 4138 513 4856 
z
" transform="scale(0.015625)"/>
      </defs>
      <use xlink:href="#DejaVuSans-44"/>
      <use xlink:href="#DejaVuSans-65" x="77.001953"/>
      <use xlink:href="#DejaVuSans-63" x="138.525391"/>
      <use xlink:href="#DejaVuSans-69" x="193.505859"/>
      <use xlink:href="#DejaVuSans-73" x="221.289062"/>
      <use xlink:href="#DejaVuSans-69" x="273.388672"/>
      <use xlink:href="#DejaVuSans-6f" x="301.171875"/>
      <use xlink:href="#DejaVuSans-6e" x="362.353516"/>
      <use xlink:href="#DejaVuSans-20" x="425.732422"/>
      <use xlink:href="#DejaVuSans-52" x="457.519531"/>
      <use xlink:href="#DejaVuSans-65" x="522.501953"/>
      <use xlink:href="#DejaVuSans-64" x="584.025391"/>
      <use xlink:href="#DejaVuSans-75" x="647.501953"/>
      <use xlink:href="#DejaVuSans-63" x="710.880859"/>
      <use xlink:href="#DejaVuSans-74" x="765.861328"/>
      <use xlink:href="#DejaVuSans-69" x="805.070312"/>
      <use xlink:href="#DejaVuSans-6f" x="832.853516"/>
      <use xlink:href="#DejaVuSans-6e" x="894.035156"/>
      <use xlink:href="#DejaVuSans-20" x="957.414062"/>
      <use xlink:href="#DejaVuSans-28" x="989.201172"/>
      <use xlink:href="#DejaVuSans-25" x="1028.214844"/>
      <use xlink:href="#DejaVuSans-29" x="1123.234375"/>
     </g>
    </g>
   </g>
   <g id="patch_10">
    <path d="M 41.570938 318.817812 
L 41.570938 23.837812 
" style="fill: none; stroke: #000000; stroke-width: 0.8; stroke-linejoin: miter; stroke-linecap: square"/>
   </g>
   <g id="patch_11">
    <path d="M 667.270313 318.817812 
L 667.270313 23.837812 
" style="fill: none; stroke: #000000; stroke-width: 0.8; stroke-linejoin: miter; stroke-linecap: square"/>
   </g>
   <g id="patch_12">
    <path d="M 41.570938 318.817812 
L 667.270312 318.817812 
" style="fill: none; stroke: #000000; stroke-width: 0.8; stroke-linejoin: miter; stroke-linecap: square"/>
   </g>
   <g id="patch_13">
    <path d="M 41.570938 23.837812 
L 667.270312 23.837812 
" style="fill: none; stroke: #000000; stroke-width: 0.8; stroke-linejoin: miter; stroke-linecap: square"/>
   </g>
   <g id="text_17">
    <!-- 2.2% -->
    <g transform="translate(86.511612 304.023004) scale(0.11 -0.11)">
     <defs>
      <path id="DejaVuSans-2e" d="M 684 794 
L 1344 794 
L 1344 0 
L 684 0 
L 684 794 
z
" transform="scale(0.015625)"/>
     </defs>
     <use xlink:href="#DejaVuSans-32"/>
     <use xlink:href="#DejaVuSans-2e" x="63.623047"/>
     <use xlink:href="#DejaVuSans-32" x="95.410156"/>
     <use xlink:href="#DejaVuSans-25" x="159.033203"/>
    </g>
   </g>
   <g id="text_18">
    <!-- 3.2% -->
    <g transform="translate(171.15709 299.893284) scale(0.11 -0.11)">
     <use xlink:href="#DejaVuSans-33"/>
     <use xlink:href="#DejaVuSans-2e" x="63.623047"/>
     <use xlink:href="#DejaVuSans-32" x="95.410156"/>
     <use xlink:href="#DejaVuSans-25" x="159.033203"/>
    </g>
   </g>
   <g id="text_19">
    <!-- 56.6% -->
    <g transform="translate(252.303194 89.985516) scale(0.11 -0.11)">
     <use xlink:href="#DejaVuSans-35"/>
     <use xlink:href="#DejaVuSans-36" x="63.623047"/>
     <use xlink:href="#DejaVuSans-2e" x="127.246094"/>
     <use xlink:href="#DejaVuSans-36" x="159.033203"/>
     <use xlink:href="#DejaVuSans-25" x="222.65625"/>
    </g>
   </g>
   <g id="text_20">
    <!-- 60.0% -->
    <g transform="translate(336.948672 76.61309) scale(0.11 -0.11)">
     <use xlink:href="#DejaVuSans-36"/>
     <use xlink:href="#DejaVuSans-30" x="63.623047"/>
     <use xlink:href="#DejaVuSans-2e" x="127.246094"/>
     <use xlink:href="#DejaVuSans-30" x="159.033203"/>
     <use xlink:href="#DejaVuSans-25" x="222.65625"/>
    </g>
   </g>
   <g id="text_21">
    <!-- 60.0% -->
    <g transform="translate(421.59415 76.61309) scale(0.11 -0.11)">
     <use xlink:href="#DejaVuSans-36"/>
     <use xlink:href="#DejaVuSans-30" x="63.623047"/>
     <use xlink:href="#DejaVuSans-2e" x="127.246094"/>
     <use xlink:href="#DejaVuSans-30" x="159.033203"/>
     <use xlink:href="#DejaVuSans-25" x="222.65625"/>
    </g>
   </g>
   <g id="text_22">
    <!-- 42.2% -->
    <g transform="translate(506.239628 146.739668) scale(0.11 -0.11)">
     <use xlink:href="#DejaVuSans-34"/>
     <use xlink:href="#DejaVuSans-32" x="63.623047"/>
     <use xlink:href="#DejaVuSans-2e" x="127.246094"/>
     <use xlink:href="#DejaVuSans-32" x="159.033203"/>
     <use xlink:href="#DejaVuSans-25" x="222.65625"/>
    </g>
   </g>
   <g id="text_23">
    <!-- 24.1% -->
    <g transform="translate(590.885107 217.810183) scale(0.11 -0.11)">
     <use xlink:href="#DejaVuSans-32"/>
     <use xlink:href="#DejaVuSans-34" x="63.623047"/>
     <use xlink:href="#DejaVuSans-2e" x="127.246094"/>
     <use xlink:href="#DejaVuSans-31" x="159.033203"/>
     <use xlink:href="#DejaVuSans-25" x="222.65625"/>
    </g>
   </g>
   <g id="text_24">
    <!-- Coverage only 13.9% -->
    <g style="fill: #7a3e15" transform="translate(52.248409 280.595177) scale(0.09 -0.09)">
     <defs>
      <path id="DejaVuSans-43" d="M 4122 4306 
L 4122 3641 
Q 3803 3938 3442 4084 
Q 3081 4231 2675 4231 
Q 1875 4231 1450 3742 
Q 1025 3253 1025 2328 
Q 1025 1406 1450 917 
Q 1875 428 2675 428 
Q 3081 428 3442 575 
Q 3803 722 4122 1019 
L 4122 359 
Q 3791 134 3420 21 
Q 3050 -91 2638 -91 
Q 1578 -91 968 557 
Q 359 1206 359 2328 
Q 359 3453 968 4101 
Q 1578 4750 2638 4750 
Q 3056 4750 3426 4639 
Q 3797 4528 4122 4306 
z
" transform="scale(0.015625)"/>
      <path id="DejaVuSans-39" d="M 703 97 
L 703 672 
Q 941 559 1184 500 
Q 1428 441 1663 441 
Q 2288 441 2617 861 
Q 2947 1281 2994 2138 
Q 2813 1869 2534 1725 
Q 2256 1581 1919 1581 
Q 1219 1581 811 2004 
Q 403 2428 403 3163 
Q 403 3881 828 4315 
Q 1253 4750 1959 4750 
Q 2769 4750 3195 4129 
Q 3622 3509 3622 2328 
Q 3622 1225 3098 567 
Q 2575 -91 1691 -91 
Q 1453 -91 1209 -44 
Q 966 3 703 97 
z
M 1959 2075 
Q 2384 2075 2632 2365 
Q 2881 2656 2881 3163 
Q 2881 3666 2632 3958 
Q 2384 4250 1959 4250 
Q 1534 4250 1286 3958 
Q 1038 3666 1038 3163 
Q 1038 2656 1286 2365 
Q 1534 2075 1959 2075 
z
" transform="scale(0.015625)"/>
     </defs>
     <use xlink:href="#DejaVuSans-43"/>
     <use xlink:href="#DejaVuSans-6f" x="69.824219"/>
     <use xlink:href="#DejaVuSans-76" x="131.005859"/>
     <use xlink:href="#DejaVuSans-65" x="190.185547"/>
     <use xlink:href="#DejaVuSans-72" x="251.708984"/>
     <use xlink:href="#DejaVuSans-61" x="292.822266"/>
     <use xlink:href="#DejaVuSans-67" x="354.101562"/>
     <use xlink:href="#DejaVuSans-65" x="417.578125"/>
     <use xlink:href="#DejaVuSans-20" x="479.101562"/>
     <use xlink:href="#DejaVuSans-6f" x="510.888672"/>
     <use xlink:href="#DejaVuSans-6e" x="572.070312"/>
     <use xlink:href="#DejaVuSans-6c" x="635.449219"/>
     <use xlink:href="#DejaVuSans-79" x="663.232422"/>
     <use xlink:href="#DejaVuSans-20" x="722.412109"/>
     <use xlink:href="#DejaVuSans-31" x="754.199219"/>
     <use xlink:href="#DejaVuSans-33" x="817.822266"/>
     <use xlink:href="#DejaVuSans-2e" x="881.445312"/>
     <use xlink:href="#DejaVuSans-39" x="913.232422"/>
     <use xlink:href="#DejaVuSans-25" x="976.855469"/>
    </g>
    <!-- of held-out steps -->
    <g style="fill: #7a3e15" transform="translate(62.40294 290.673208) scale(0.09 -0.09)">
     <use xlink:href="#DejaVuSans-6f"/>
     <use xlink:href="#DejaVuSans-66" x="61.181641"/>
     <use xlink:href="#DejaVuSans-20" x="96.386719"/>
     <use xlink:href="#DejaVuSans-68" x="128.173828"/>
     <use xlink:href="#DejaVuSans-65" x="191.552734"/>
     <use xlink:href="#DejaVuSans-6c" x="253.076172"/>
     <use xlink:href="#DejaVuSans-64" x="280.859375"/>
     <use xlink:href="#DejaVuSans-2d" x="344.335938"/>
     <use xlink:href="#DejaVuSans-6f" x="382.294922"/>
     <use xlink:href="#DejaVuSans-75" x="443.476562"/>
     <use xlink:href="#DejaVuSans-74" x="506.855469"/>
     <use xlink:href="#DejaVuSans-20" x="546.064453"/>
     <use xlink:href="#DejaVuSans-73" x="577.851562"/>
     <use xlink:href="#DejaVuSans-74" x="629.951172"/>
     <use xlink:href="#DejaVuSans-65" x="669.160156"/>
     <use xlink:href="#DejaVuSans-70" x="730.683594"/>
     <use xlink:href="#DejaVuSans-73" x="794.160156"/>
    </g>
   </g>
   <g id="text_25">
    <!-- Site fallback doubles -->
    <g style="fill: #7f1d1d" transform="translate(138.410528 276.465457) scale(0.09 -0.09)">
     <defs>
      <path id="DejaVuSans-53" d="M 3425 4513 
L 3425 3897 
Q 3066 4069 2747 4153 
Q 2428 4238 2131 4238 
Q 1616 4238 1336 4038 
Q 1056 3838 1056 3469 
Q 1056 3159 1242 3001 
Q 1428 2844 1947 2747 
L 2328 2669 
Q 3034 2534 3370 2195 
Q 3706 1856 3706 1288 
Q 3706 609 3251 259 
Q 2797 -91 1919 -91 
Q 1588 -91 1214 -16 
Q 841 59 441 206 
L 441 856 
Q 825 641 1194 531 
Q 1563 422 1919 422 
Q 2459 422 2753 634 
Q 3047 847 3047 1241 
Q 3047 1584 2836 1778 
Q 2625 1972 2144 2069 
L 1759 2144 
Q 1053 2284 737 2584 
Q 422 2884 422 3419 
Q 422 4038 858 4394 
Q 1294 4750 2059 4750 
Q 2388 4750 2728 4690 
Q 3069 4631 3425 4513 
z
" transform="scale(0.015625)"/>
     </defs>
     <use xlink:href="#DejaVuSans-53"/>
     <use xlink:href="#DejaVuSans-69" x="63.476562"/>
     <use xlink:href="#DejaVuSans-74" x="91.259766"/>
     <use xlink:href="#DejaVuSans-65" x="130.46875"/>
     <use xlink:href="#DejaVuSans-20" x="191.992188"/>
     <use xlink:href="#DejaVuSans-66" x="223.779297"/>
     <use xlink:href="#DejaVuSans-61" x="258.984375"/>
     <use xlink:href="#DejaVuSans-6c" x="320.263672"/>
     <use xlink:href="#DejaVuSans-6c" x="348.046875"/>
     <use xlink:href="#DejaVuSans-62" x="375.830078"/>
     <use xlink:href="#DejaVuSans-61" x="439.306641"/>
     <use xlink:href="#DejaVuSans-63" x="500.585938"/>
     <use xlink:href="#DejaVuSans-6b" x="555.566406"/>
     <use xlink:href="#DejaVuSans-20" x="613.476562"/>
     <use xlink:href="#DejaVuSans-64" x="645.263672"/>
     <use xlink:href="#DejaVuSans-6f" x="708.740234"/>
     <use xlink:href="#DejaVuSans-75" x="769.921875"/>
     <use xlink:href="#DejaVuSans-62" x="833.300781"/>
     <use xlink:href="#DejaVuSans-6c" x="896.777344"/>
     <use xlink:href="#DejaVuSans-65" x="924.560547"/>
     <use xlink:href="#DejaVuSans-73" x="986.083984"/>
    </g>
    <!-- covered steps -->
    <g style="fill: #7f1d1d" transform="translate(153.586778 286.543488) scale(0.09 -0.09)">
     <use xlink:href="#DejaVuSans-63"/>
     <use xlink:href="#DejaVuSans-6f" x="54.980469"/>
     <use xlink:href="#DejaVuSans-76" x="116.162109"/>
     <use xlink:href="#DejaVuSans-65" x="175.341797"/>
     <use xlink:href="#DejaVuSans-72" x="236.865234"/>
     <use xlink:href="#DejaVuSans-65" x="275.728516"/>
     <use xlink:href="#DejaVuSans-64" x="337.251953"/>
     <use xlink:href="#DejaVuSans-20" x="400.728516"/>
     <use xlink:href="#DejaVuSans-73" x="432.515625"/>
     <use xlink:href="#DejaVuSans-74" x="484.615234"/>
     <use xlink:href="#DejaVuSans-65" x="523.824219"/>
     <use xlink:href="#DejaVuSans-70" x="585.347656"/>
     <use xlink:href="#DejaVuSans-73" x="648.824219"/>
    </g>
   </g>
   <g id="text_26">
    <!-- 18 real ServiceNow -->
    <g style="fill: #5b3c99" transform="translate(226.230616 56.479658) scale(0.09 -0.09)">
     <defs>
      <path id="DejaVuSans-38" d="M 2034 2216 
Q 1584 2216 1326 1975 
Q 1069 1734 1069 1313 
Q 1069 891 1326 650 
Q 1584 409 2034 409 
Q 2484 409 2743 651 
Q 3003 894 3003 1313 
Q 3003 1734 2745 1975 
Q 2488 2216 2034 2216 
z
M 1403 2484 
Q 997 2584 770 2862 
Q 544 3141 544 3541 
Q 544 4100 942 4425 
Q 1341 4750 2034 4750 
Q 2731 4750 3128 4425 
Q 3525 4100 3525 3541 
Q 3525 3141 3298 2862 
Q 3072 2584 2669 2484 
Q 3125 2378 3379 2068 
Q 3634 1759 3634 1313 
Q 3634 634 3220 271 
Q 2806 -91 2034 -91 
Q 1263 -91 848 271 
Q 434 634 434 1313 
Q 434 1759 690 2068 
Q 947 2378 1403 2484 
z
M 1172 3481 
Q 1172 3119 1398 2916 
Q 1625 2713 2034 2713 
Q 2441 2713 2670 2916 
Q 2900 3119 2900 3481 
Q 2900 3844 2670 4047 
Q 2441 4250 2034 4250 
Q 1625 4250 1398 4047 
Q 1172 3844 1172 3481 
z
" transform="scale(0.015625)"/>
      <path id="DejaVuSans-4e" d="M 628 4666 
L 1478 4666 
L 3547 763 
L 3547 4666 
L 4159 4666 
L 4159 0 
L 3309 0 
L 1241 3903 
L 1241 0 
L 628 0 
L 628 4666 
z
" transform="scale(0.015625)"/>
     </defs>
     <use xlink:href="#DejaVuSans-31"/>
     <use xlink:href="#DejaVuSans-38" x="63.623047"/>
     <use xlink:href="#DejaVuSans-20" x="127.246094"/>
     <use xlink:href="#DejaVuSans-72" x="159.033203"/>
     <use xlink:href="#DejaVuSans-65" x="197.896484"/>
     <use xlink:href="#DejaVuSans-61" x="259.419922"/>
     <use xlink:href="#DejaVuSans-6c" x="320.699219"/>
     <use xlink:href="#DejaVuSans-20" x="348.482422"/>
     <use xlink:href="#DejaVuSans-53" x="380.269531"/>
     <use xlink:href="#DejaVuSans-65" x="443.746094"/>
     <use xlink:href="#DejaVuSans-72" x="505.269531"/>
     <use xlink:href="#DejaVuSans-76" x="546.382812"/>
     <use xlink:href="#DejaVuSans-69" x="605.5625"/>
     <use xlink:href="#DejaVuSans-63" x="633.345703"/>
     <use xlink:href="#DejaVuSans-65" x="688.326172"/>
     <use xlink:href="#DejaVuSans-4e" x="749.849609"/>
     <use xlink:href="#DejaVuSans-6f" x="824.654297"/>
     <use xlink:href="#DejaVuSans-77" x="885.835938"/>
    </g>
    <!-- episodes, mean over -->
    <g style="fill: #5b3c99" transform="translate(222.743819 66.557689) scale(0.09 -0.09)">
     <defs>
      <path id="DejaVuSans-2c" d="M 750 794 
L 1409 794 
L 1409 256 
L 897 -744 
L 494 -744 
L 750 256 
L 750 794 
z
" transform="scale(0.015625)"/>
      <path id="DejaVuSans-6d" d="M 3328 2828 
Q 3544 3216 3844 3400 
Q 4144 3584 4550 3584 
Q 5097 3584 5394 3201 
Q 5691 2819 5691 2113 
L 5691 0 
L 5113 0 
L 5113 2094 
Q 5113 2597 4934 2840 
Q 4756 3084 4391 3084 
Q 3944 3084 3684 2787 
Q 3425 2491 3425 1978 
L 3425 0 
L 2847 0 
L 2847 2094 
Q 2847 2600 2669 2842 
Q 2491 3084 2119 3084 
Q 1678 3084 1418 2786 
Q 1159 2488 1159 1978 
L 1159 0 
L 581 0 
L 581 3500 
L 1159 3500 
L 1159 2956 
Q 1356 3278 1631 3431 
Q 1906 3584 2284 3584 
Q 2666 3584 2933 3390 
Q 3200 3197 3328 2828 
z
" transform="scale(0.015625)"/>
     </defs>
     <use xlink:href="#DejaVuSans-65"/>
     <use xlink:href="#DejaVuSans-70" x="61.523438"/>
     <use xlink:href="#DejaVuSans-69" x="125"/>
     <use xlink:href="#DejaVuSans-73" x="152.783203"/>
     <use xlink:href="#DejaVuSans-6f" x="204.882812"/>
     <use xlink:href="#DejaVuSans-64" x="266.064453"/>
     <use xlink:href="#DejaVuSans-65" x="329.541016"/>
     <use xlink:href="#DejaVuSans-73" x="391.064453"/>
     <use xlink:href="#DejaVuSans-2c" x="443.164062"/>
     <use xlink:href="#DejaVuSans-20" x="474.951172"/>
     <use xlink:href="#DejaVuSans-6d" x="506.738281"/>
     <use xlink:href="#DejaVuSans-65" x="604.150391"/>
     <use xlink:href="#DejaVuSans-61" x="665.673828"/>
     <use xlink:href="#DejaVuSans-6e" x="726.953125"/>
     <use xlink:href="#DejaVuSans-20" x="790.332031"/>
     <use xlink:href="#DejaVuSans-6f" x="822.119141"/>
     <use xlink:href="#DejaVuSans-76" x="883.300781"/>
     <use xlink:href="#DejaVuSans-65" x="942.480469"/>
     <use xlink:href="#DejaVuSans-72" x="1004.003906"/>
    </g>
    <!-- 5 split seeds -->
    <g style="fill: #5b3c99" transform="translate(241.503194 76.63572) scale(0.09 -0.09)">
     <use xlink:href="#DejaVuSans-35"/>
     <use xlink:href="#DejaVuSans-20" x="63.623047"/>
     <use xlink:href="#DejaVuSans-73" x="95.410156"/>
     <use xlink:href="#DejaVuSans-70" x="147.509766"/>
     <use xlink:href="#DejaVuSans-6c" x="210.986328"/>
     <use xlink:href="#DejaVuSans-69" x="238.769531"/>
     <use xlink:href="#DejaVuSans-74" x="266.552734"/>
     <use xlink:href="#DejaVuSans-20" x="305.761719"/>
     <use xlink:href="#DejaVuSans-73" x="337.548828"/>
     <use xlink:href="#DejaVuSans-65" x="389.648438"/>
     <use xlink:href="#DejaVuSans-65" x="451.171875"/>
     <use xlink:href="#DejaVuSans-64" x="512.695312"/>
     <use xlink:href="#DejaVuSans-73" x="576.171875"/>
    </g>
   </g>
   <g id="text_27">
    <!-- Shared action space -->
    <g style="fill: #1d3557" transform="translate(477.957128 133.389872) scale(0.09 -0.09)">
     <use xlink:href="#DejaVuSans-53"/>
     <use xlink:href="#DejaVuSans-68" x="63.476562"/>
     <use xlink:href="#DejaVuSans-61" x="126.855469"/>
     <use xlink:href="#DejaVuSans-72" x="188.134766"/>
     <use xlink:href="#DejaVuSans-65" x="226.998047"/>
     <use xlink:href="#DejaVuSans-64" x="288.521484"/>
     <use xlink:href="#DejaVuSans-20" x="351.998047"/>
     <use xlink:href="#DejaVuSans-61" x="383.785156"/>
     <use xlink:href="#DejaVuSans-63" x="445.064453"/>
     <use xlink:href="#DejaVuSans-74" x="500.044922"/>
     <use xlink:href="#DejaVuSans-69" x="539.253906"/>
     <use xlink:href="#DejaVuSans-6f" x="567.037109"/>
     <use xlink:href="#DejaVuSans-6e" x="628.21875"/>
     <use xlink:href="#DejaVuSans-20" x="691.597656"/>
     <use xlink:href="#DejaVuSans-73" x="723.384766"/>
     <use xlink:href="#DejaVuSans-70" x="775.484375"/>
     <use xlink:href="#DejaVuSans-61" x="838.960938"/>
     <use xlink:href="#DejaVuSans-63" x="900.240234"/>
     <use xlink:href="#DejaVuSans-65" x="955.220703"/>
    </g>
   </g>
   <g id="text_28">
    <!-- Loose trigger adds -->
    <g style="fill: #8d1f1f" transform="translate(566.436044 194.382356) scale(0.09 -0.09)">
     <defs>
      <path id="DejaVuSans-4c" d="M 628 4666 
L 1259 4666 
L 1259 531 
L 3531 531 
L 3531 0 
L 628 0 
L 628 4666 
z
" transform="scale(0.015625)"/>
     </defs>
     <use xlink:href="#DejaVuSans-4c"/>
     <use xlink:href="#DejaVuSans-6f" x="53.962891"/>
     <use xlink:href="#DejaVuSans-6f" x="115.144531"/>
     <use xlink:href="#DejaVuSans-73" x="176.326172"/>
     <use xlink:href="#DejaVuSans-65" x="228.425781"/>
     <use xlink:href="#DejaVuSans-20" x="289.949219"/>
     <use xlink:href="#DejaVuSans-74" x="321.736328"/>
     <use xlink:href="#DejaVuSans-72" x="360.945312"/>
     <use xlink:href="#DejaVuSans-69" x="402.058594"/>
     <use xlink:href="#DejaVuSans-67" x="429.841797"/>
     <use xlink:href="#DejaVuSans-67" x="493.318359"/>
     <use xlink:href="#DejaVuSans-65" x="556.794922"/>
     <use xlink:href="#DejaVuSans-72" x="618.318359"/>
     <use xlink:href="#DejaVuSans-20" x="659.431641"/>
     <use xlink:href="#DejaVuSans-61" x="691.21875"/>
     <use xlink:href="#DejaVuSans-64" x="752.498047"/>
     <use xlink:href="#DejaVuSans-64" x="815.974609"/>
     <use xlink:href="#DejaVuSans-73" x="879.451172"/>
    </g>
    <!-- false macro calls -->
    <g style="fill: #8d1f1f" transform="translate(570.597841 204.460387) scale(0.09 -0.09)">
     <use xlink:href="#DejaVuSans-66"/>
     <use xlink:href="#DejaVuSans-61" x="35.205078"/>
     <use xlink:href="#DejaVuSans-6c" x="96.484375"/>
     <use xlink:href="#DejaVuSans-73" x="124.267578"/>
     <use xlink:href="#DejaVuSans-65" x="176.367188"/>
     <use xlink:href="#DejaVuSans-20" x="237.890625"/>
     <use xlink:href="#DejaVuSans-6d" x="269.677734"/>
     <use xlink:href="#DejaVuSans-61" x="367.089844"/>
     <use xlink:href="#DejaVuSans-63" x="428.369141"/>
     <use xlink:href="#DejaVuSans-72" x="483.349609"/>
     <use xlink:href="#DejaVuSans-6f" x="522.212891"/>
     <use xlink:href="#DejaVuSans-20" x="583.394531"/>
     <use xlink:href="#DejaVuSans-63" x="615.181641"/>
     <use xlink:href="#DejaVuSans-61" x="670.162109"/>
     <use xlink:href="#DejaVuSans-6c" x="731.441406"/>
     <use xlink:href="#DejaVuSans-6c" x="759.224609"/>
     <use xlink:href="#DejaVuSans-73" x="787.007812"/>
    </g>
   </g>
   <g id="text_29">
    <!-- Action Chunking Works in Dense Local Settings, Then Degrades with Shared Vocabularies -->
    <g transform="translate(40.821719 17.837812) scale(0.14 -0.14)">
     <defs>
      <path id="DejaVuSans-54" d="M -19 4666 
L 3928 4666 
L 3928 4134 
L 2272 4134 
L 2272 0 
L 1638 0 
L 1638 4134 
L -19 4134 
L -19 4666 
z
" transform="scale(0.015625)"/>
      <path id="DejaVuSans-56" d="M 1831 0 
L 50 4666 
L 709 4666 
L 2188 738 
L 3669 4666 
L 4325 4666 
L 2547 0 
L 1831 0 
z
" transform="scale(0.015625)"/>
     </defs>
     <use xlink:href="#DejaVuSans-41"/>
     <use xlink:href="#DejaVuSans-63" x="66.658203"/>
     <use xlink:href="#DejaVuSans-74" x="121.638672"/>
     <use xlink:href="#DejaVuSans-69" x="160.847656"/>
     <use xlink:href="#DejaVuSans-6f" x="188.630859"/>
     <use xlink:href="#DejaVuSans-6e" x="249.8125"/>
     <use xlink:href="#DejaVuSans-20" x="313.191406"/>
     <use xlink:href="#DejaVuSans-43" x="344.978516"/>
     <use xlink:href="#DejaVuSans-68" x="414.802734"/>
     <use xlink:href="#DejaVuSans-75" x="478.181641"/>
     <use xlink:href="#DejaVuSans-6e" x="541.560547"/>
     <use xlink:href="#DejaVuSans-6b" x="604.939453"/>
     <use xlink:href="#DejaVuSans-69" x="662.849609"/>
     <use xlink:href="#DejaVuSans-6e" x="690.632812"/>
     <use xlink:href="#DejaVuSans-67" x="754.011719"/>
     <use xlink:href="#DejaVuSans-20" x="817.488281"/>
     <use xlink:href="#DejaVuSans-57" x="849.275391"/>
     <use xlink:href="#DejaVuSans-6f" x="942.277344"/>
     <use xlink:href="#DejaVuSans-72" x="1003.458984"/>
     <use xlink:href="#DejaVuSans-6b" x="1044.572266"/>
     <use xlink:href="#DejaVuSans-73" x="1102.482422"/>
     <use xlink:href="#DejaVuSans-20" x="1154.582031"/>
     <use xlink:href="#DejaVuSans-69" x="1186.369141"/>
     <use xlink:href="#DejaVuSans-6e" x="1214.152344"/>
     <use xlink:href="#DejaVuSans-20" x="1277.53125"/>
     <use xlink:href="#DejaVuSans-44" x="1309.318359"/>
     <use xlink:href="#DejaVuSans-65" x="1386.320312"/>
     <use xlink:href="#DejaVuSans-6e" x="1447.84375"/>
     <use xlink:href="#DejaVuSans-73" x="1511.222656"/>
     <use xlink:href="#DejaVuSans-65" x="1563.322266"/>
     <use xlink:href="#DejaVuSans-20" x="1624.845703"/>
     <use xlink:href="#DejaVuSans-4c" x="1656.632812"/>
     <use xlink:href="#DejaVuSans-6f" x="1710.595703"/>
     <use xlink:href="#DejaVuSans-63" x="1771.777344"/>
     <use xlink:href="#DejaVuSans-61" x="1826.757812"/>
     <use xlink:href="#DejaVuSans-6c" x="1888.037109"/>
     <use xlink:href="#DejaVuSans-20" x="1915.820312"/>
     <use xlink:href="#DejaVuSans-53" x="1947.607422"/>
     <use xlink:href="#DejaVuSans-65" x="2011.083984"/>
     <use xlink:href="#DejaVuSans-74" x="2072.607422"/>
     <use xlink:href="#DejaVuSans-74" x="2111.816406"/>
     <use xlink:href="#DejaVuSans-69" x="2151.025391"/>
     <use xlink:href="#DejaVuSans-6e" x="2178.808594"/>
     <use xlink:href="#DejaVuSans-67" x="2242.1875"/>
     <use xlink:href="#DejaVuSans-73" x="2305.664062"/>
     <use xlink:href="#DejaVuSans-2c" x="2357.763672"/>
     <use xlink:href="#DejaVuSans-20" x="2389.550781"/>
     <use xlink:href="#DejaVuSans-54" x="2421.337891"/>
     <use xlink:href="#DejaVuSans-68" x="2482.421875"/>
     <use xlink:href="#DejaVuSans-65" x="2545.800781"/>
     <use xlink:href="#DejaVuSans-6e" x="2607.324219"/>
     <use xlink:href="#DejaVuSans-20" x="2670.703125"/>
     <use xlink:href="#DejaVuSans-44" x="2702.490234"/>
     <use xlink:href="#DejaVuSans-65" x="2779.492188"/>
     <use xlink:href="#DejaVuSans-67" x="2841.015625"/>
     <use xlink:href="#DejaVuSans-72" x="2904.492188"/>
     <use xlink:href="#DejaVuSans-61" x="2945.605469"/>
     <use xlink:href="#DejaVuSans-64" x="3006.884766"/>
     <use xlink:href="#DejaVuSans-65" x="3070.361328"/>
     <use xlink:href="#DejaVuSans-73" x="3131.884766"/>
     <use xlink:href="#DejaVuSans-20" x="3183.984375"/>
     <use xlink:href="#DejaVuSans-77" x="3215.771484"/>
     <use xlink:href="#DejaVuSans-69" x="3297.558594"/>
     <use xlink:href="#DejaVuSans-74" x="3325.341797"/>
     <use xlink:href="#DejaVuSans-68" x="3364.550781"/>
     <use xlink:href="#DejaVuSans-20" x="3427.929688"/>
     <use xlink:href="#DejaVuSans-53" x="3459.716797"/>
     <use xlink:href="#DejaVuSans-68" x="3523.193359"/>
     <use xlink:href="#DejaVuSans-61" x="3586.572266"/>
     <use xlink:href="#DejaVuSans-72" x="3647.851562"/>
     <use xlink:href="#DejaVuSans-65" x="3686.714844"/>
     <use xlink:href="#DejaVuSans-64" x="3748.238281"/>
     <use xlink:href="#DejaVuSans-20" x="3811.714844"/>
     <use xlink:href="#DejaVuSans-56" x="3843.501953"/>
     <use xlink:href="#DejaVuSans-6f" x="3904.160156"/>
     <use xlink:href="#DejaVuSans-63" x="3965.341797"/>
     <use xlink:href="#DejaVuSans-61" x="4020.322266"/>
     <use xlink:href="#DejaVuSans-62" x="4081.601562"/>
     <use xlink:href="#DejaVuSans-75" x="4145.078125"/>
     <use xlink:href="#DejaVuSans-6c" x="4208.457031"/>
     <use xlink:href="#DejaVuSans-61" x="4236.240234"/>
     <use xlink:href="#DejaVuSans-72" x="4297.519531"/>
     <use xlink:href="#DejaVuSans-69" x="4338.632812"/>
     <use xlink:href="#DejaVuSans-65" x="4366.416016"/>
     <use xlink:href="#DejaVuSans-73" x="4427.939453"/>
    </g>
   </g>
  </g>
 </g>
 <defs>
  <clipPath id="p871992a986">
   <rect x="41.570938" y="23.837812" width="625.699375" height="294.98"/>
  </clipPath>
 </defs>
</svg>
