<?xml version="1.0" encoding="utf-8" standalone="no"?>
<!DOCTYPE svg PUBLIC "-//W3C//DTD SVG 1.1//EN"
  "http://www.w3.org/Graphics/SVG/1.1/DTD/svg11.dtd">
<svg xmlns:xlink="http://www.w3.org/1999/xlink" width="746.335pt" height="523.444947pt" viewBox="0 0 746.335 523.444947" xmlns="http://www.w3.org/2000/svg" version="1.1">
 <metadata>
  <rdf:RDF xmlns:dc="http://purl.org/dc/elements/1.1/" xmlns:cc="http://creativecommons.org/ns#" xmlns:rdf="http://www.w3.org/1999/02/22-rdf-syntax-ns#">
   <cc:Work>
    <dc:type rdf:resource="http://purl.org/dc/dcmitype/StillImage"/>
    <dc:date>2026-03-29T05:24:52.559259</dc:date>
    <dc:format>image/svg+xml</dc:format>
    <dc:creator>
     <cc:Agent>
      <dc:title>Matplotlib v3.9.4, https://matplotlib.org/</dc:title>
     </cc:Agent>
    </dc:creator>
   </cc:Work>
  </rdf:RDF>
 </metadata>
 <defs>
  <style type="text/css">*{stroke-linejoin: round; stroke-linecap: butt}</style>
 </defs>
 <g id="figure_1">
  <g id="patch_1">
   <path d="M 0 523.444947 
L 746.335 523.444947 
L 746.335 0 
L 0 0 
z
" style="fill: #ffffff"/>
  </g>
  <g id="axes_1">
   <g id="patch_2">
    <path d="M 44.749063 254.537795 
L 698.401562 254.537795 
L 698.401562 23.837813 
L 44.749063 23.837813 
z
" style="fill: #ffffff"/>
   </g>
   <g id="patch_3">
    <path d="M 74.46054 254.537795 
L 156.423236 254.537795 
L 156.423236 139.201031 
L 74.46054 139.201031 
z
" clip-path="url(#pdb770ae339)" style="fill: #bc6c25"/>
   </g>
   <g id="patch_4">
    <path d="M 176.91391 254.537795 
L 258.876606 254.537795 
L 258.876606 167.24162 
L 176.91391 167.24162 
z
" clip-path="url(#pdb770ae339)" style="fill: #dda15e"/>
   </g>
   <g id="patch_5">
    <path d="M 279.36728 254.537795 
L 361.329976 254.537795 
L 361.329976 254.537795 
L 279.36728 254.537795 
z
" clip-path="url(#pdb770ae339)" style="fill: #e9c46a"/>
   </g>
   <g id="patch_6">
    <path d="M 381.820649 254.537795 
L 463.783345 254.537795 
L 463.783345 91.584935 
L 381.820649 91.584935 
z
" clip-path="url(#pdb770ae339)" style="fill: #c1121f"/>
   </g>
   <g id="patch_7">
    <path d="M 484.274019 254.537795 
L 566.236715 254.537795 
L 566.236715 83.648919 
L 484.274019 83.648919 
z
" clip-path="url(#pdb770ae339)" style="fill: #9a031e"/>
   </g>
   <g id="patch_8">
    <path d="M 586.727389 254.537795 
L 668.690085 254.537795 
L 668.690085 91.584935 
L 586.727389 91.584935 
z
" clip-path="url(#pdb770ae339)" style="fill: #6d597a"/>
   </g>
   <g id="matplotlib.axis_1">
    <g id="xtick_1">
     <g id="line2d_1">
      <defs>
       <path id="me42aebae39" d="M 0 0 
L 0 3.5 
" style="stroke: #000000; stroke-width: 0.8"/>
      </defs>
      <g>
       <use xlink:href="#me42aebae39" x="115.441888" y="254.537795" style="stroke: #000000; stroke-width: 0.8"/>
      </g>
     </g>
    </g>
    <g id="xtick_2">
     <g id="line2d_2">
      <g>
       <use xlink:href="#me42aebae39" x="217.895258" y="254.537795" style="stroke: #000000; stroke-width: 0.8"/>
      </g>
     </g>
    </g>
    <g id="xtick_3">
     <g id="line2d_3">
      <g>
       <use xlink:href="#me42aebae39" x="320.348628" y="254.537795" style="stroke: #000000; stroke-width: 0.8"/>
      </g>
     </g>
    </g>
    <g id="xtick_4">
     <g id="line2d_4">
      <g>
       <use xlink:href="#me42aebae39" x="422.801997" y="254.537795" style="stroke: #000000; stroke-width: 0.8"/>
      </g>
     </g>
    </g>
    <g id="xtick_5">
     <g id="line2d_5">
      <g>
       <use xlink:href="#me42aebae39" x="525.255367" y="254.537795" style="stroke: #000000; stroke-width: 0.8"/>
      </g>
     </g>
    </g>
    <g id="xtick_6">
     <g id="line2d_6">
      <g>
       <use xlink:href="#me42aebae39" x="627.708737" y="254.537795" style="stroke: #000000; stroke-width: 0.8"/>
      </g>
     </g>
    </g>
   </g>
   <g id="matplotlib.axis_2">
    <g id="ytick_1">
     <g id="line2d_7">
      <path d="M 44.749063 254.537795 
L 698.401562 254.537795 
" clip-path="url(#pdb770ae339)" style="fill: none; stroke: #b0b0b0; stroke-opacity: 0.25; stroke-width: 0.8; stroke-linecap: square"/>
     </g>
     <g id="line2d_8">
      <defs>
       <path id="m9bf9060949" d="M 0 0 
L -3.5 0 
" style="stroke: #000000; stroke-width: 0.8"/>
      </defs>
      <g>
       <use xlink:href="#m9bf9060949" x="44.749063" y="254.537795" style="stroke: #000000; stroke-width: 0.8"/>
      </g>
     </g>
     <g id="text_1">
      <!-- 0.0 -->
      <g transform="translate(21.845938 258.337014) scale(0.1 -0.1)">
       <defs>
        <path id="DejaVuSans-30" d="M 2034 4250 
Q 1547 4250 1301 3770 
Q 1056 3291 1056 2328 
Q 1056 1369 1301 889 
Q 1547 409 2034 409 
Q 2525 409 2770 889 
Q 3016 1369 3016 2328 
Q 3016 3291 2770 3770 
Q 2525 4250 2034 4250 
z
M 2034 4750 
Q 2819 4750 3233 4129 
Q 3647 3509 3647 2328 
Q 3647 1150 3233 529 
Q 2819 -91 2034 -91 
Q 1250 -91 836 529 
Q 422 1150 422 2328 
Q 422 3509 836 4129 
Q 1250 4750 2034 4750 
z
" transform="scale(0.015625)"/>
        <path id="DejaVuSans-2e" d="M 684 794 
L 1344 794 
L 1344 0 
L 684 0 
L 684 794 
z
" transform="scale(0.015625)"/>
       </defs>
       <use xlink:href="#DejaVuSans-30"/>
       <use xlink:href="#DejaVuSans-2e" x="63.623047"/>
       <use xlink:href="#DejaVuSans-30" x="95.410156"/>
      </g>
     </g>
    </g>
    <g id="ytick_2">
     <g id="line2d_9">
      <path d="M 44.749063 228.084409 
L 698.401562 228.084409 
" clip-path="url(#pdb770ae339)" style="fill: none; stroke: #b0b0b0; stroke-opacity: 0.25; stroke-width: 0.8; stroke-linecap: square"/>
     </g>
     <g id="line2d_10">
      <g>
       <use xlink:href="#m9bf9060949" x="44.749063" y="228.084409" style="stroke: #000000; stroke-width: 0.8"/>
      </g>
     </g>
     <g id="text_2">
      <!-- 0.5 -->
      <g transform="translate(21.845938 231.883628) scale(0.1 -0.1)">
       <defs>
        <path id="DejaVuSans-35" d="M 691 4666 
L 3169 4666 
L 3169 4134 
L 1269 4134 
L 1269 2991 
Q 1406 3038 1543 3061 
Q 1681 3084 1819 3084 
Q 2600 3084 3056 2656 
Q 3513 2228 3513 1497 
Q 3513 744 3044 326 
Q 2575 -91 1722 -91 
Q 1428 -91 1123 -41 
Q 819 9 494 109 
L 494 744 
Q 775 591 1075 516 
Q 1375 441 1709 441 
Q 2250 441 2565 725 
Q 2881 1009 2881 1497 
Q 2881 1984 2565 2268 
Q 2250 2553 1709 2553 
Q 1456 2553 1204 2497 
Q 953 2441 691 2322 
L 691 4666 
z
" transform="scale(0.015625)"/>
       </defs>
       <use xlink:href="#DejaVuSans-30"/>
       <use xlink:href="#DejaVuSans-2e" x="63.623047"/>
       <use xlink:href="#DejaVuSans-35" x="95.410156"/>
      </g>
     </g>
    </g>
    <g id="ytick_3">
     <g id="line2d_11">
      <path d="M 44.749063 201.631023 
L 698.401562 201.631023 
" clip-path="url(#pdb770ae339)" style="fill: none; stroke: #b0b0b0; stroke-opacity: 0.25; stroke-width: 0.8; stroke-linecap: square"/>
     </g>
     <g id="line2d_12">
      <g>
       <use xlink:href="#m9bf9060949" x="44.749063" y="201.631023" style="stroke: #000000; stroke-width: 0.8"/>
      </g>
     </g>
     <g id="text_3">
      <!-- 1.0 -->
      <g transform="translate(21.845938 205.430241) scale(0.1 -0.1)">
       <defs>
        <path id="DejaVuSans-31" d="M 794 531 
L 1825 531 
L 1825 4091 
L 703 3866 
L 703 4441 
L 1819 4666 
L 2450 4666 
L 2450 531 
L 3481 531 
L 3481 0 
L 794 0 
L 794 531 
z
" transform="scale(0.015625)"/>
       </defs>
       <use xlink:href="#DejaVuSans-31"/>
       <use xlink:href="#DejaVuSans-2e" x="63.623047"/>
       <use xlink:href="#DejaVuSans-30" x="95.410156"/>
      </g>
     </g>
    </g>
    <g id="ytick_4">
     <g id="line2d_13">
      <path d="M 44.749063 175.177636 
L 698.401562 175.177636 
" clip-path="url(#pdb770ae339)" style="fill: none; stroke: #b0b0b0; stroke-opacity: 0.25; stroke-width: 0.8; stroke-linecap: square"/>
     </g>
     <g id="line2d_14">
      <g>
       <use xlink:href="#m9bf9060949" x="44.749063" y="175.177636" style="stroke: #000000; stroke-width: 0.8"/>
      </g>
     </g>
     <g id="text_4">
      <!-- 1.5 -->
      <g transform="translate(21.845938 178.976855) scale(0.1 -0.1)">
       <use xlink:href="#DejaVuSans-31"/>
       <use xlink:href="#DejaVuSans-2e" x="63.623047"/>
       <use xlink:href="#DejaVuSans-35" x="95.410156"/>
      </g>
     </g>
    </g>
    <g id="ytick_5">
     <g id="line2d_15">
      <path d="M 44.749063 148.72425 
L 698.401562 148.72425 
" clip-path="url(#pdb770ae339)" style="fill: none; stroke: #b0b0b0; stroke-opacity: 0.25; stroke-width: 0.8; stroke-linecap: square"/>
     </g>
     <g id="line2d_16">
      <g>
       <use xlink:href="#m9bf9060949" x="44.749063" y="148.72425" style="stroke: #000000; stroke-width: 0.8"/>
      </g>
     </g>
     <g id="text_5">
      <!-- 2.0 -->
      <g transform="translate(21.845938 152.523468) scale(0.1 -0.1)">
       <defs>
        <path id="DejaVuSans-32" d="M 1228 531 
L 3431 531 
L 3431 0 
L 469 0 
L 469 531 
Q 828 903 1448 1529 
Q 2069 2156 2228 2338 
Q 2531 2678 2651 2914 
Q 2772 3150 2772 3378 
Q 2772 3750 2511 3984 
Q 2250 4219 1831 4219 
Q 1534 4219 1204 4116 
Q 875 4013 500 3803 
L 500 4441 
Q 881 4594 1212 4672 
Q 1544 4750 1819 4750 
Q 2544 4750 2975 4387 
Q 3406 4025 3406 3419 
Q 3406 3131 3298 2873 
Q 3191 2616 2906 2266 
Q 2828 2175 2409 1742 
Q 1991 1309 1228 531 
z
" transform="scale(0.015625)"/>
       </defs>
       <use xlink:href="#DejaVuSans-32"/>
       <use xlink:href="#DejaVuSans-2e" x="63.623047"/>
       <use xlink:href="#DejaVuSans-30" x="95.410156"/>
      </g>
     </g>
    </g>
    <g id="ytick_6">
     <g id="line2d_17">
      <path d="M 44.749063 122.270863 
L 698.401562 122.270863 
" clip-path="url(#pdb770ae339)" style="fill: none; stroke: #b0b0b0; stroke-opacity: 0.25; stroke-width: 0.8; stroke-linecap: square"/>
     </g>
     <g id="line2d_18">
      <g>
       <use xlink:href="#m9bf9060949" x="44.749063" y="122.270863" style="stroke: #000000; stroke-width: 0.8"/>
      </g>
     </g>
     <g id="text_6">
      <!-- 2.5 -->
      <g transform="translate(21.845938 126.070082) scale(0.1 -0.1)">
       <use xlink:href="#DejaVuSans-32"/>
       <use xlink:href="#DejaVuSans-2e" x="63.623047"/>
       <use xlink:href="#DejaVuSans-35" x="95.410156"/>
      </g>
     </g>
    </g>
    <g id="ytick_7">
     <g id="line2d_19">
      <path d="M 44.749063 95.817477 
L 698.401562 95.817477 
" clip-path="url(#pdb770ae339)" style="fill: none; stroke: #b0b0b0; stroke-opacity: 0.25; stroke-width: 0.8; stroke-linecap: square"/>
     </g>
     <g id="line2d_20">
      <g>
       <use xlink:href="#m9bf9060949" x="44.749063" y="95.817477" style="stroke: #000000; stroke-width: 0.8"/>
      </g>
     </g>
     <g id="text_7">
      <!-- 3.0 -->
      <g transform="translate(21.845938 99.616696) scale(0.1 -0.1)">
       <defs>
        <path id="DejaVuSans-33" d="M 2597 2516 
Q 3050 2419 3304 2112 
Q 3559 1806 3559 1356 
Q 3559 666 3084 287 
Q 2609 -91 1734 -91 
Q 1441 -91 1130 -33 
Q 819 25 488 141 
L 488 750 
Q 750 597 1062 519 
Q 1375 441 1716 441 
Q 2309 441 2620 675 
Q 2931 909 2931 1356 
Q 2931 1769 2642 2001 
Q 2353 2234 1838 2234 
L 1294 2234 
L 1294 2753 
L 1863 2753 
Q 2328 2753 2575 2939 
Q 2822 3125 2822 3475 
Q 2822 3834 2567 4026 
Q 2313 4219 1838 4219 
Q 1578 4219 1281 4162 
Q 984 4106 628 3988 
L 628 4550 
Q 988 4650 1302 4700 
Q 1616 4750 1894 4750 
Q 2613 4750 3031 4423 
Q 3450 4097 3450 3541 
Q 3450 3153 3228 2886 
Q 3006 2619 2597 2516 
z
" transform="scale(0.015625)"/>
       </defs>
       <use xlink:href="#DejaVuSans-33"/>
       <use xlink:href="#DejaVuSans-2e" x="63.623047"/>
       <use xlink:href="#DejaVuSans-30" x="95.410156"/>
      </g>
     </g>
    </g>
    <g id="ytick_8">
     <g id="line2d_21">
      <path d="M 44.749063 69.364091 
L 698.401562 69.364091 
" clip-path="url(#pdb770ae339)" style="fill: none; stroke: #b0b0b0; stroke-opacity: 0.25; stroke-width: 0.8; stroke-linecap: square"/>
     </g>
     <g id="line2d_22">
      <g>
       <use xlink:href="#m9bf9060949" x="44.749063" y="69.364091" style="stroke: #000000; stroke-width: 0.8"/>
      </g>
     </g>
     <g id="text_8">
      <!-- 3.5 -->
      <g transform="translate(21.845938 73.163309) scale(0.1 -0.1)">
       <use xlink:href="#DejaVuSans-33"/>
       <use xlink:href="#DejaVuSans-2e" x="63.623047"/>
       <use xlink:href="#DejaVuSans-35" x="95.410156"/>
      </g>
     </g>
    </g>
    <g id="ytick_9">
     <g id="line2d_23">
      <path d="M 44.749063 42.910704 
L 698.401562 42.910704 
" clip-path="url(#pdb770ae339)" style="fill: none; stroke: #b0b0b0; stroke-opacity: 0.25; stroke-width: 0.8; stroke-linecap: square"/>
     </g>
     <g id="line2d_24">
      <g>
       <use xlink:href="#m9bf9060949" x="44.749063" y="42.910704" style="stroke: #000000; stroke-width: 0.8"/>
      </g>
     </g>
     <g id="text_9">
      <!-- 4.0 -->
      <g transform="translate(21.845938 46.709923) scale(0.1 -0.1)">
       <defs>
        <path id="DejaVuSans-34" d="M 2419 4116 
L 825 1625 
L 2419 1625 
L 2419 4116 
z
M 2253 4666 
L 3047 4666 
L 3047 1625 
L 3713 1625 
L 3713 1100 
L 3047 1100 
L 3047 0 
L 2419 0 
L 2419 1100 
L 313 1100 
L 313 1709 
L 2253 4666 
z
" transform="scale(0.015625)"/>
       </defs>
       <use xlink:href="#DejaVuSans-34"/>
       <use xlink:href="#DejaVuSans-2e" x="63.623047"/>
       <use xlink:href="#DejaVuSans-30" x="95.410156"/>
      </g>
     </g>
    </g>
    <g id="text_10">
     <!-- Decision Reduction (%) -->
     <g transform="translate(15.558281 203.111554) rotate(-90) scale(0.11 -0.11)">
      <defs>
       <path id="DejaVuSans-44" d="M 1259 4147 
L 1259 519 
L 2022 519 
Q 2988 519 3436 956 
Q 3884 1394 3884 2338 
Q 3884 3275 3436 3711 
Q 2988 4147 2022 4147 
L 1259 4147 
z
M 628 4666 
L 1925 4666 
Q 3281 4666 3915 4102 
Q 4550 3538 4550 2338 
Q 4550 1131 3912 565 
Q 3275 0 1925 0 
L 628 0 
L 628 4666 
z
" transform="scale(0.015625)"/>
       <path id="DejaVuSans-65" d="M 3597 1894 
L 3597 1613 
L 953 1613 
Q 991 1019 1311 708 
Q 1631 397 2203 397 
Q 2534 397 2845 478 
Q 3156 559 3463 722 
L 3463 178 
Q 3153 47 2828 -22 
Q 2503 -91 2169 -91 
Q 1331 -91 842 396 
Q 353 884 353 1716 
Q 353 2575 817 3079 
Q 1281 3584 2069 3584 
Q 2775 3584 3186 3129 
Q 3597 2675 3597 1894 
z
M 3022 2063 
Q 3016 2534 2758 2815 
Q 2500 3097 2075 3097 
Q 1594 3097 1305 2825 
Q 1016 2553 972 2059 
L 3022 2063 
z
" transform="scale(0.015625)"/>
       <path id="DejaVuSans-63" d="M 3122 3366 
L 3122 2828 
Q 2878 2963 2633 3030 
Q 2388 3097 2138 3097 
Q 1578 3097 1268 2742 
Q 959 2388 959 1747 
Q 959 1106 1268 751 
Q 1578 397 2138 397 
Q 2388 397 2633 464 
Q 2878 531 3122 666 
L 3122 134 
Q 2881 22 2623 -34 
Q 2366 -91 2075 -91 
Q 1284 -91 818 406 
Q 353 903 353 1747 
Q 353 2603 823 3093 
Q 1294 3584 2113 3584 
Q 2378 3584 2631 3529 
Q 2884 3475 3122 3366 
z
" transform="scale(0.015625)"/>
       <path id="DejaVuSans-69" d="M 603 3500 
L 1178 3500 
L 1178 0 
L 603 0 
L 603 3500 
z
M 603 4863 
L 1178 4863 
L 1178 4134 
L 603 4134 
L 603 4863 
z
" transform="scale(0.015625)"/>
       <path id="DejaVuSans-73" d="M 2834 3397 
L 2834 2853 
Q 2591 2978 2328 3040 
Q 2066 3103 1784 3103 
Q 1356 3103 1142 2972 
Q 928 2841 928 2578 
Q 928 2378 1081 2264 
Q 1234 2150 1697 2047 
L 1894 2003 
Q 2506 1872 2764 1633 
Q 3022 1394 3022 966 
Q 3022 478 2636 193 
Q 2250 -91 1575 -91 
Q 1294 -91 989 -36 
Q 684 19 347 128 
L 347 722 
Q 666 556 975 473 
Q 1284 391 1588 391 
Q 1994 391 2212 530 
Q 2431 669 2431 922 
Q 2431 1156 2273 1281 
Q 2116 1406 1581 1522 
L 1381 1569 
Q 847 1681 609 1914 
Q 372 2147 372 2553 
Q 372 3047 722 3315 
Q 1072 3584 1716 3584 
Q 2034 3584 2315 3537 
Q 2597 3491 2834 3397 
z
" transform="scale(0.015625)"/>
       <path id="DejaVuSans-6f" d="M 1959 3097 
Q 1497 3097 1228 2736 
Q 959 2375 959 1747 
Q 959 1119 1226 758 
Q 1494 397 1959 397 
Q 2419 397 2687 759 
Q 2956 1122 2956 1747 
Q 2956 2369 2687 2733 
Q 2419 3097 1959 3097 
z
M 1959 3584 
Q 2709 3584 3137 3096 
Q 3566 2609 3566 1747 
Q 3566 888 3137 398 
Q 2709 -91 1959 -91 
Q 1206 -91 779 398 
Q 353 888 353 1747 
Q 353 2609 779 3096 
Q 1206 3584 1959 3584 
z
" transform="scale(0.015625)"/>
       <path id="DejaVuSans-6e" d="M 3513 2113 
L 3513 0 
L 2938 0 
L 2938 2094 
Q 2938 2591 2744 2837 
Q 2550 3084 2163 3084 
Q 1697 3084 1428 2787 
Q 1159 2491 1159 1978 
L 1159 0 
L 581 0 
L 581 3500 
L 1159 3500 
L 1159 2956 
Q 1366 3272 1645 3428 
Q 1925 3584 2291 3584 
Q 2894 3584 3203 3211 
Q 3513 2838 3513 2113 
z
" transform="scale(0.015625)"/>
       <path id="DejaVuSans-20" transform="scale(0.015625)"/>
       <path id="DejaVuSans-52" d="M 2841 2188 
Q 3044 2119 3236 1894 
Q 3428 1669 3622 1275 
L 4263 0 
L 3584 0 
L 2988 1197 
Q 2756 1666 2539 1819 
Q 2322 1972 1947 1972 
L 1259 1972 
L 1259 0 
L 628 0 
L 628 4666 
L 2053 4666 
Q 2853 4666 3247 4331 
Q 3641 3997 3641 3322 
Q 3641 2881 3436 2590 
Q 3231 2300 2841 2188 
z
M 1259 4147 
L 1259 2491 
L 2053 2491 
Q 2509 2491 2742 2702 
Q 2975 2913 2975 3322 
Q 2975 3731 2742 3939 
Q 2509 4147 2053 4147 
L 1259 4147 
z
" transform="scale(0.015625)"/>
       <path id="DejaVuSans-64" d="M 2906 2969 
L 2906 4863 
L 3481 4863 
L 3481 0 
L 2906 0 
L 2906 525 
Q 2725 213 2448 61 
Q 2172 -91 1784 -91 
Q 1150 -91 751 415 
Q 353 922 353 1747 
Q 353 2572 751 3078 
Q 1150 3584 1784 3584 
Q 2172 3584 2448 3432 
Q 2725 3281 2906 2969 
z
M 947 1747 
Q 947 1113 1208 752 
Q 1469 391 1925 391 
Q 2381 391 2643 752 
Q 2906 1113 2906 1747 
Q 2906 2381 2643 2742 
Q 2381 3103 1925 3103 
Q 1469 3103 1208 2742 
Q 947 2381 947 1747 
z
" transform="scale(0.015625)"/>
       <path id="DejaVuSans-75" d="M 544 1381 
L 544 3500 
L 1119 3500 
L 1119 1403 
Q 1119 906 1312 657 
Q 1506 409 1894 409 
Q 2359 409 2629 706 
Q 2900 1003 2900 1516 
L 2900 3500 
L 3475 3500 
L 3475 0 
L 2900 0 
L 2900 538 
Q 2691 219 2414 64 
Q 2138 -91 1772 -91 
Q 1169 -91 856 284 
Q 544 659 544 1381 
z
M 1991 3584 
L 1991 3584 
z
" transform="scale(0.015625)"/>
       <path id="DejaVuSans-74" d="M 1172 4494 
L 1172 3500 
L 2356 3500 
L 2356 3053 
L 1172 3053 
L 1172 1153 
Q 1172 725 1289 603 
Q 1406 481 1766 481 
L 2356 481 
L 2356 0 
L 1766 0 
Q 1100 0 847 248 
Q 594 497 594 1153 
L 594 3053 
L 172 3053 
L 172 3500 
L 594 3500 
L 594 4494 
L 1172 4494 
z
" transform="scale(0.015625)"/>
       <path id="DejaVuSans-28" d="M 1984 4856 
Q 1566 4138 1362 3434 
Q 1159 2731 1159 2009 
Q 1159 1288 1364 580 
Q 1569 -128 1984 -844 
L 1484 -844 
Q 1016 -109 783 600 
Q 550 1309 550 2009 
Q 550 2706 781 3412 
Q 1013 4119 1484 4856 
L 1984 4856 
z
" transform="scale(0.015625)"/>
       <path id="DejaVuSans-25" d="M 4653 2053 
Q 4381 2053 4226 1822 
Q 4072 1591 4072 1178 
Q 4072 772 4226 539 
Q 4381 306 4653 306 
Q 4919 306 5073 539 
Q 5228 772 5228 1178 
Q 5228 1588 5073 1820 
Q 4919 2053 4653 2053 
z
M 4653 2450 
Q 5147 2450 5437 2106 
Q 5728 1763 5728 1178 
Q 5728 594 5436 251 
Q 5144 -91 4653 -91 
Q 4153 -91 3862 251 
Q 3572 594 3572 1178 
Q 3572 1766 3864 2108 
Q 4156 2450 4653 2450 
z
M 1428 4353 
Q 1159 4353 1004 4120 
Q 850 3888 850 3481 
Q 850 3069 1003 2837 
Q 1156 2606 1428 2606 
Q 1700 2606 1854 2837 
Q 2009 3069 2009 3481 
Q 2009 3884 1853 4118 
Q 1697 4353 1428 4353 
z
M 4250 4750 
L 4750 4750 
L 1831 -91 
L 1331 -91 
L 4250 4750 
z
M 1428 4750 
Q 1922 4750 2215 4408 
Q 2509 4066 2509 3481 
Q 2509 2891 2217 2550 
Q 1925 2209 1428 2209 
Q 931 2209 642 2551 
Q 353 2894 353 3481 
Q 353 4063 643 4406 
Q 934 4750 1428 4750 
z
" transform="scale(0.015625)"/>
       <path id="DejaVuSans-29" d="M 513 4856 
L 1013 4856 
Q 1481 4119 1714 3412 
Q 1947 2706 1947 2009 
Q 1947 1309 1714 600 
Q 1481 -109 1013 -844 
L 513 -844 
Q 928 -128 1133 580 
Q 1338 1288 1338 2009 
Q 1338 2731 1133 3434 
Q 928 4138 513 4856 
z
" transform="scale(0.015625)"/>
      </defs>
      <use xlink:href="#DejaVuSans-44"/>
      <use xlink:href="#DejaVuSans-65" x="77.001953"/>
      <use xlink:href="#DejaVuSans-63" x="138.525391"/>
      <use xlink:href="#DejaVuSans-69" x="193.505859"/>
      <use xlink:href="#DejaVuSans-73" x="221.289062"/>
      <use xlink:href="#DejaVuSans-69" x="273.388672"/>
      <use xlink:href="#DejaVuSans-6f" x="301.171875"/>
      <use xlink:href="#DejaVuSans-6e" x="362.353516"/>
      <use xlink:href="#DejaVuSans-20" x="425.732422"/>
      <use xlink:href="#DejaVuSans-52" x="457.519531"/>
      <use xlink:href="#DejaVuSans-65" x="522.501953"/>
      <use xlink:href="#DejaVuSans-64" x="584.025391"/>
      <use xlink:href="#DejaVuSans-75" x="647.501953"/>
      <use xlink:href="#DejaVuSans-63" x="710.880859"/>
      <use xlink:href="#DejaVuSans-74" x="765.861328"/>
      <use xlink:href="#DejaVuSans-69" x="805.070312"/>
      <use xlink:href="#DejaVuSans-6f" x="832.853516"/>
      <use xlink:href="#DejaVuSans-6e" x="894.035156"/>
      <use xlink:href="#DejaVuSans-20" x="957.414062"/>
      <use xlink:href="#DejaVuSans-28" x="989.201172"/>
      <use xlink:href="#DejaVuSans-25" x="1028.214844"/>
      <use xlink:href="#DejaVuSans-29" x="1123.234375"/>
     </g>
    </g>
   </g>
   <g id="patch_9">
    <path d="M 44.749063 254.537795 
L 44.749063 23.837813 
" style="fill: none; stroke: #000000; stroke-width: 0.8; stroke-linejoin: miter; stroke-linecap: square"/>
   </g>
   <g id="patch_10">
    <path d="M 698.401562 254.537795 
L 698.401562 23.837813 
" style="fill: none; stroke: #000000; stroke-width: 0.8; stroke-linejoin: miter; stroke-linecap: square"/>
   </g>
   <g id="patch_11">
    <path d="M 44.749063 254.537795 
L 698.401562 254.537795 
" style="fill: none; stroke: #000000; stroke-width: 0.8; stroke-linejoin: miter; stroke-linecap: square"/>
   </g>
   <g id="patch_12">
    <path d="M 44.749063 23.837813 
L 698.401562 23.837813 
" style="fill: none; stroke: #000000; stroke-width: 0.8; stroke-linejoin: miter; stroke-linecap: square"/>
   </g>
   <g id="text_11">
    <!-- 2.18% -->
    <g transform="translate(101.146653 130.980499) scale(0.09 -0.09)">
     <defs>
      <path id="DejaVuSans-38" d="M 2034 2216 
Q 1584 2216 1326 1975 
Q 1069 1734 1069 1313 
Q 1069 891 1326 650 
Q 1584 409 2034 409 
Q 2484 409 2743 651 
Q 3003 894 3003 1313 
Q 3003 1734 2745 1975 
Q 2488 2216 2034 2216 
z
M 1403 2484 
Q 997 2584 770 2862 
Q 544 3141 544 3541 
Q 544 4100 942 4425 
Q 1341 4750 2034 4750 
Q 2731 4750 3128 4425 
Q 3525 4100 3525 3541 
Q 3525 3141 3298 2862 
Q 3072 2584 2669 2484 
Q 3125 2378 3379 2068 
Q 3634 1759 3634 1313 
Q 3634 634 3220 271 
Q 2806 -91 2034 -91 
Q 1263 -91 848 271 
Q 434 634 434 1313 
Q 434 1759 690 2068 
Q 947 2378 1403 2484 
z
M 1172 3481 
Q 1172 3119 1398 2916 
Q 1625 2713 2034 2713 
Q 2441 2713 2670 2916 
Q 2900 3119 2900 3481 
Q 2900 3844 2670 4047 
Q 2441 4250 2034 4250 
Q 1625 4250 1398 4047 
Q 1172 3844 1172 3481 
z
" transform="scale(0.015625)"/>
     </defs>
     <use xlink:href="#DejaVuSans-32"/>
     <use xlink:href="#DejaVuSans-2e" x="63.623047"/>
     <use xlink:href="#DejaVuSans-31" x="95.410156"/>
     <use xlink:href="#DejaVuSans-38" x="159.033203"/>
     <use xlink:href="#DejaVuSans-25" x="222.65625"/>
    </g>
   </g>
   <g id="text_12">
    <!-- 1.65% -->
    <g transform="translate(203.600023 159.021089) scale(0.09 -0.09)">
     <defs>
      <path id="DejaVuSans-36" d="M 2113 2584 
Q 1688 2584 1439 2293 
Q 1191 2003 1191 1497 
Q 1191 994 1439 701 
Q 1688 409 2113 409 
Q 2538 409 2786 701 
Q 3034 994 3034 1497 
Q 3034 2003 2786 2293 
Q 2538 2584 2113 2584 
z
M 3366 4563 
L 3366 3988 
Q 3128 4100 2886 4159 
Q 2644 4219 2406 4219 
Q 1781 4219 1451 3797 
Q 1122 3375 1075 2522 
Q 1259 2794 1537 2939 
Q 1816 3084 2150 3084 
Q 2853 3084 3261 2657 
Q 3669 2231 3669 1497 
Q 3669 778 3244 343 
Q 2819 -91 2113 -91 
Q 1303 -91 875 529 
Q 447 1150 447 2328 
Q 447 3434 972 4092 
Q 1497 4750 2381 4750 
Q 2619 4750 2861 4703 
Q 3103 4656 3366 4563 
z
" transform="scale(0.015625)"/>
     </defs>
     <use xlink:href="#DejaVuSans-31"/>
     <use xlink:href="#DejaVuSans-2e" x="63.623047"/>
     <use xlink:href="#DejaVuSans-36" x="95.410156"/>
     <use xlink:href="#DejaVuSans-35" x="159.033203"/>
     <use xlink:href="#DejaVuSans-25" x="222.65625"/>
    </g>
   </g>
   <g id="text_13">
    <!-- 0.00% -->
    <g transform="translate(306.053393 246.317264) scale(0.09 -0.09)">
     <use xlink:href="#DejaVuSans-30"/>
     <use xlink:href="#DejaVuSans-2e" x="63.623047"/>
     <use xlink:href="#DejaVuSans-30" x="95.410156"/>
     <use xlink:href="#DejaVuSans-30" x="159.033203"/>
     <use xlink:href="#DejaVuSans-25" x="222.65625"/>
    </g>
   </g>
   <g id="text_14">
    <!-- 3.08% -->
    <g transform="translate(408.506763 83.364404) scale(0.09 -0.09)">
     <use xlink:href="#DejaVuSans-33"/>
     <use xlink:href="#DejaVuSans-2e" x="63.623047"/>
     <use xlink:href="#DejaVuSans-30" x="95.410156"/>
     <use xlink:href="#DejaVuSans-38" x="159.033203"/>
     <use xlink:href="#DejaVuSans-25" x="222.65625"/>
    </g>
   </g>
   <g id="text_15">
    <!-- 3.23% -->
    <g transform="translate(510.960133 75.428388) scale(0.09 -0.09)">
     <use xlink:href="#DejaVuSans-33"/>
     <use xlink:href="#DejaVuSans-2e" x="63.623047"/>
     <use xlink:href="#DejaVuSans-32" x="95.410156"/>
     <use xlink:href="#DejaVuSans-33" x="159.033203"/>
     <use xlink:href="#DejaVuSans-25" x="222.65625"/>
    </g>
   </g>
   <g id="text_16">
    <!-- 3.08% -->
    <g transform="translate(613.413503 83.364404) scale(0.09 -0.09)">
     <use xlink:href="#DejaVuSans-33"/>
     <use xlink:href="#DejaVuSans-2e" x="63.623047"/>
     <use xlink:href="#DejaVuSans-30" x="95.410156"/>
     <use xlink:href="#DejaVuSans-38" x="159.033203"/>
     <use xlink:href="#DejaVuSans-25" x="222.65625"/>
    </g>
   </g>
   <g id="text_17">
    <!-- Mind2Web Coverage Improves with Site Fallback, but Family Fallback Mostly Adds Noise -->
    <g transform="translate(64.065312 17.837813) scale(0.14 -0.14)">
     <defs>
      <path id="DejaVuSans-4d" d="M 628 4666 
L 1569 4666 
L 2759 1491 
L 3956 4666 
L 4897 4666 
L 4897 0 
L 4281 0 
L 4281 4097 
L 3078 897 
L 2444 897 
L 1241 4097 
L 1241 0 
L 628 0 
L 628 4666 
z
" transform="scale(0.015625)"/>
      <path id="DejaVuSans-57" d="M 213 4666 
L 850 4666 
L 1831 722 
L 2809 4666 
L 3519 4666 
L 4500 722 
L 5478 4666 
L 6119 4666 
L 4947 0 
L 4153 0 
L 3169 4050 
L 2175 0 
L 1381 0 
L 213 4666 
z
" transform="scale(0.015625)"/>
      <path id="DejaVuSans-62" d="M 3116 1747 
Q 3116 2381 2855 2742 
Q 2594 3103 2138 3103 
Q 1681 3103 1420 2742 
Q 1159 2381 1159 1747 
Q 1159 1113 1420 752 
Q 1681 391 2138 391 
Q 2594 391 2855 752 
Q 3116 1113 3116 1747 
z
M 1159 2969 
Q 1341 3281 1617 3432 
Q 1894 3584 2278 3584 
Q 2916 3584 3314 3078 
Q 3713 2572 3713 1747 
Q 3713 922 3314 415 
Q 2916 -91 2278 -91 
Q 1894 -91 1617 61 
Q 1341 213 1159 525 
L 1159 0 
L 581 0 
L 581 4863 
L 1159 4863 
L 1159 2969 
z
" transform="scale(0.015625)"/>
      <path id="DejaVuSans-43" d="M 4122 4306 
L 4122 3641 
Q 3803 3938 3442 4084 
Q 3081 4231 2675 4231 
Q 1875 4231 1450 3742 
Q 1025 3253 1025 2328 
Q 1025 1406 1450 917 
Q 1875 428 2675 428 
Q 3081 428 3442 575 
Q 3803 722 4122 1019 
L 4122 359 
Q 3791 134 3420 21 
Q 3050 -91 2638 -91 
Q 1578 -91 968 557 
Q 359 1206 359 2328 
Q 359 3453 968 4101 
Q 1578 4750 2638 4750 
Q 3056 4750 3426 4639 
Q 3797 4528 4122 4306 
z
" transform="scale(0.015625)"/>
      <path id="DejaVuSans-76" d="M 191 3500 
L 800 3500 
L 1894 563 
L 2988 3500 
L 3597 3500 
L 2284 0 
L 1503 0 
L 191 3500 
z
" transform="scale(0.015625)"/>
      <path id="DejaVuSans-72" d="M 2631 2963 
Q 2534 3019 2420 3045 
Q 2306 3072 2169 3072 
Q 1681 3072 1420 2755 
Q 1159 2438 1159 1844 
L 1159 0 
L 581 0 
L 581 3500 
L 1159 3500 
L 1159 2956 
Q 1341 3275 1631 3429 
Q 1922 3584 2338 3584 
Q 2397 3584 2469 3576 
Q 2541 3569 2628 3553 
L 2631 2963 
z
" transform="scale(0.015625)"/>
      <path id="DejaVuSans-61" d="M 2194 1759 
Q 1497 1759 1228 1600 
Q 959 1441 959 1056 
Q 959 750 1161 570 
Q 1363 391 1709 391 
Q 2188 391 2477 730 
Q 2766 1069 2766 1631 
L 2766 1759 
L 2194 1759 
z
M 3341 1997 
L 3341 0 
L 2766 0 
L 2766 531 
Q 2569 213 2275 61 
Q 1981 -91 1556 -91 
Q 1019 -91 701 211 
Q 384 513 384 1019 
Q 384 1609 779 1909 
Q 1175 2209 1959 2209 
L 2766 2209 
L 2766 2266 
Q 2766 2663 2505 2880 
Q 2244 3097 1772 3097 
Q 1472 3097 1187 3025 
Q 903 2953 641 2809 
L 641 3341 
Q 956 3463 1253 3523 
Q 1550 3584 1831 3584 
Q 2591 3584 2966 3190 
Q 3341 2797 3341 1997 
z
" transform="scale(0.015625)"/>
      <path id="DejaVuSans-67" d="M 2906 1791 
Q 2906 2416 2648 2759 
Q 2391 3103 1925 3103 
Q 1463 3103 1205 2759 
Q 947 2416 947 1791 
Q 947 1169 1205 825 
Q 1463 481 1925 481 
Q 2391 481 2648 825 
Q 2906 1169 2906 1791 
z
M 3481 434 
Q 3481 -459 3084 -895 
Q 2688 -1331 1869 -1331 
Q 1566 -1331 1297 -1286 
Q 1028 -1241 775 -1147 
L 775 -588 
Q 1028 -725 1275 -790 
Q 1522 -856 1778 -856 
Q 2344 -856 2625 -561 
Q 2906 -266 2906 331 
L 2906 616 
Q 2728 306 2450 153 
Q 2172 0 1784 0 
Q 1141 0 747 490 
Q 353 981 353 1791 
Q 353 2603 747 3093 
Q 1141 3584 1784 3584 
Q 2172 3584 2450 3431 
Q 2728 3278 2906 2969 
L 2906 3500 
L 3481 3500 
L 3481 434 
z
" transform="scale(0.015625)"/>
      <path id="DejaVuSans-49" d="M 628 4666 
L 1259 4666 
L 1259 0 
L 628 0 
L 628 4666 
z
" transform="scale(0.015625)"/>
      <path id="DejaVuSans-6d" d="M 3328 2828 
Q 3544 3216 3844 3400 
Q 4144 3584 4550 3584 
Q 5097 3584 5394 3201 
Q 5691 2819 5691 2113 
L 5691 0 
L 5113 0 
L 5113 2094 
Q 5113 2597 4934 2840 
Q 4756 3084 4391 3084 
Q 3944 3084 3684 2787 
Q 3425 2491 3425 1978 
L 3425 0 
L 2847 0 
L 2847 2094 
Q 2847 2600 2669 2842 
Q 2491 3084 2119 3084 
Q 1678 3084 1418 2786 
Q 1159 2488 1159 1978 
L 1159 0 
L 581 0 
L 581 3500 
L 1159 3500 
L 1159 2956 
Q 1356 3278 1631 3431 
Q 1906 3584 2284 3584 
Q 2666 3584 2933 3390 
Q 3200 3197 3328 2828 
z
" transform="scale(0.015625)"/>
      <path id="DejaVuSans-70" d="M 1159 525 
L 1159 -1331 
L 581 -1331 
L 581 3500 
L 1159 3500 
L 1159 2969 
Q 1341 3281 1617 3432 
Q 1894 3584 2278 3584 
Q 2916 3584 3314 3078 
Q 3713 2572 3713 1747 
Q 3713 922 3314 415 
Q 2916 -91 2278 -91 
Q 1894 -91 1617 61 
Q 1341 213 1159 525 
z
M 3116 1747 
Q 3116 2381 2855 2742 
Q 2594 3103 2138 3103 
Q 1681 3103 1420 2742 
Q 1159 2381 1159 1747 
Q 1159 1113 1420 752 
Q 1681 391 2138 391 
Q 2594 391 2855 752 
Q 3116 1113 3116 1747 
z
" transform="scale(0.015625)"/>
      <path id="DejaVuSans-77" d="M 269 3500 
L 844 3500 
L 1563 769 
L 2278 3500 
L 2956 3500 
L 3675 769 
L 4391 3500 
L 4966 3500 
L 4050 0 
L 3372 0 
L 2619 2869 
L 1863 0 
L 1184 0 
L 269 3500 
z
" transform="scale(0.015625)"/>
      <path id="DejaVuSans-68" d="M 3513 2113 
L 3513 0 
L 2938 0 
L 2938 2094 
Q 2938 2591 2744 2837 
Q 2550 3084 2163 3084 
Q 1697 3084 1428 2787 
Q 1159 2491 1159 1978 
L 1159 0 
L 581 0 
L 581 4863 
L 1159 4863 
L 1159 2956 
Q 1366 3272 1645 3428 
Q 1925 3584 2291 3584 
Q 2894 3584 3203 3211 
Q 3513 2838 3513 2113 
z
" transform="scale(0.015625)"/>
      <path id="DejaVuSans-53" d="M 3425 4513 
L 3425 3897 
Q 3066 4069 2747 4153 
Q 2428 4238 2131 4238 
Q 1616 4238 1336 4038 
Q 1056 3838 1056 3469 
Q 1056 3159 1242 3001 
Q 1428 2844 1947 2747 
L 2328 2669 
Q 3034 2534 3370 2195 
Q 3706 1856 3706 1288 
Q 3706 609 3251 259 
Q 2797 -91 1919 -91 
Q 1588 -91 1214 -16 
Q 841 59 441 206 
L 441 856 
Q 825 641 1194 531 
Q 1563 422 1919 422 
Q 2459 422 2753 634 
Q 3047 847 3047 1241 
Q 3047 1584 2836 1778 
Q 2625 1972 2144 2069 
L 1759 2144 
Q 1053 2284 737 2584 
Q 422 2884 422 3419 
Q 422 4038 858 4394 
Q 1294 4750 2059 4750 
Q 2388 4750 2728 4690 
Q 3069 4631 3425 4513 
z
" transform="scale(0.015625)"/>
      <path id="DejaVuSans-46" d="M 628 4666 
L 3309 4666 
L 3309 4134 
L 1259 4134 
L 1259 2759 
L 3109 2759 
L 3109 2228 
L 1259 2228 
L 1259 0 
L 628 0 
L 628 4666 
z
" transform="scale(0.015625)"/>
      <path id="DejaVuSans-6c" d="M 603 4863 
L 1178 4863 
L 1178 0 
L 603 0 
L 603 4863 
z
" transform="scale(0.015625)"/>
      <path id="DejaVuSans-6b" d="M 581 4863 
L 1159 4863 
L 1159 1991 
L 2875 3500 
L 3609 3500 
L 1753 1863 
L 3688 0 
L 2938 0 
L 1159 1709 
L 1159 0 
L 581 0 
L 581 4863 
z
" transform="scale(0.015625)"/>
      <path id="DejaVuSans-2c" d="M 750 794 
L 1409 794 
L 1409 256 
L 897 -744 
L 494 -744 
L 750 256 
L 750 794 
z
" transform="scale(0.015625)"/>
      <path id="DejaVuSans-79" d="M 2059 -325 
Q 1816 -950 1584 -1140 
Q 1353 -1331 966 -1331 
L 506 -1331 
L 506 -850 
L 844 -850 
Q 1081 -850 1212 -737 
Q 1344 -625 1503 -206 
L 1606 56 
L 191 3500 
L 800 3500 
L 1894 763 
L 2988 3500 
L 3597 3500 
L 2059 -325 
z
" transform="scale(0.015625)"/>
      <path id="DejaVuSans-41" d="M 2188 4044 
L 1331 1722 
L 3047 1722 
L 2188 4044 
z
M 1831 4666 
L 2547 4666 
L 4325 0 
L 3669 0 
L 3244 1197 
L 1141 1197 
L 716 0 
L 50 0 
L 1831 4666 
z
" transform="scale(0.015625)"/>
      <path id="DejaVuSans-4e" d="M 628 4666 
L 1478 4666 
L 3547 763 
L 3547 4666 
L 4159 4666 
L 4159 0 
L 3309 0 
L 1241 3903 
L 1241 0 
L 628 0 
L 628 4666 
z
" transform="scale(0.015625)"/>
     </defs>
     <use xlink:href="#DejaVuSans-4d"/>
     <use xlink:href="#DejaVuSans-69" x="86.279297"/>
     <use xlink:href="#DejaVuSans-6e" x="114.0625"/>
     <use xlink:href="#DejaVuSans-64" x="177.441406"/>
     <use xlink:href="#DejaVuSans-32" x="240.917969"/>
     <use xlink:href="#DejaVuSans-57" x="304.541016"/>
     <use xlink:href="#DejaVuSans-65" x="397.542969"/>
     <use xlink:href="#DejaVuSans-62" x="459.066406"/>
     <use xlink:href="#DejaVuSans-20" x="522.542969"/>
     <use xlink:href="#DejaVuSans-43" x="554.330078"/>
     <use xlink:href="#DejaVuSans-6f" x="624.154297"/>
     <use xlink:href="#DejaVuSans-76" x="685.335938"/>
     <use xlink:href="#DejaVuSans-65" x="744.515625"/>
     <use xlink:href="#DejaVuSans-72" x="806.039062"/>
     <use xlink:href="#DejaVuSans-61" x="847.152344"/>
     <use xlink:href="#DejaVuSans-67" x="908.431641"/>
     <use xlink:href="#DejaVuSans-65" x="971.908203"/>
     <use xlink:href="#DejaVuSans-20" x="1033.431641"/>
     <use xlink:href="#DejaVuSans-49" x="1065.21875"/>
     <use xlink:href="#DejaVuSans-6d" x="1094.710938"/>
     <use xlink:href="#DejaVuSans-70" x="1192.123047"/>
     <use xlink:href="#DejaVuSans-72" x="1255.599609"/>
     <use xlink:href="#DejaVuSans-6f" x="1294.462891"/>
     <use xlink:href="#DejaVuSans-76" x="1355.644531"/>
     <use xlink:href="#DejaVuSans-65" x="1414.824219"/>
     <use xlink:href="#DejaVuSans-73" x="1476.347656"/>
     <use xlink:href="#DejaVuSans-20" x="1528.447266"/>
     <use xlink:href="#DejaVuSans-77" x="1560.234375"/>
     <use xlink:href="#DejaVuSans-69" x="1642.021484"/>
     <use xlink:href="#DejaVuSans-74" x="1669.804688"/>
     <use xlink:href="#DejaVuSans-68" x="1709.013672"/>
     <use xlink:href="#DejaVuSans-20" x="1772.392578"/>
     <use xlink:href="#DejaVuSans-53" x="1804.179688"/>
     <use xlink:href="#DejaVuSans-69" x="1867.65625"/>
     <use xlink:href="#DejaVuSans-74" x="1895.439453"/>
     <use xlink:href="#DejaVuSans-65" x="1934.648438"/>
     <use xlink:href="#DejaVuSans-20" x="1996.171875"/>
     <use xlink:href="#DejaVuSans-46" x="2027.958984"/>
     <use xlink:href="#DejaVuSans-61" x="2076.353516"/>
     <use xlink:href="#DejaVuSans-6c" x="2137.632812"/>
     <use xlink:href="#DejaVuSans-6c" x="2165.416016"/>
     <use xlink:href="#DejaVuSans-62" x="2193.199219"/>
     <use xlink:href="#DejaVuSans-61" x="2256.675781"/>
     <use xlink:href="#DejaVuSans-63" x="2317.955078"/>
     <use xlink:href="#DejaVuSans-6b" x="2372.935547"/>
     <use xlink:href="#DejaVuSans-2c" x="2430.845703"/>
     <use xlink:href="#DejaVuSans-20" x="2462.632812"/>
     <use xlink:href="#DejaVuSans-62" x="2494.419922"/>
     <use xlink:href="#DejaVuSans-75" x="2557.896484"/>
     <use xlink:href="#DejaVuSans-74" x="2621.275391"/>
     <use xlink:href="#DejaVuSans-20" x="2660.484375"/>
     <use xlink:href="#DejaVuSans-46" x="2692.271484"/>
     <use xlink:href="#DejaVuSans-61" x="2740.666016"/>
     <use xlink:href="#DejaVuSans-6d" x="2801.945312"/>
     <use xlink:href="#DejaVuSans-69" x="2899.357422"/>
     <use xlink:href="#DejaVuSans-6c" x="2927.140625"/>
     <use xlink:href="#DejaVuSans-79" x="2954.923828"/>
     <use xlink:href="#DejaVuSans-20" x="3014.103516"/>
     <use xlink:href="#DejaVuSans-46" x="3045.890625"/>
     <use xlink:href="#DejaVuSans-61" x="3094.285156"/>
     <use xlink:href="#DejaVuSans-6c" x="3155.564453"/>
     <use xlink:href="#DejaVuSans-6c" x="3183.347656"/>
     <use xlink:href="#DejaVuSans-62" x="3211.130859"/>
     <use xlink:href="#DejaVuSans-61" x="3274.607422"/>
     <use xlink:href="#DejaVuSans-63" x="3335.886719"/>
     <use xlink:href="#DejaVuSans-6b" x="3390.867188"/>
     <use xlink:href="#DejaVuSans-20" x="3448.777344"/>
     <use xlink:href="#DejaVuSans-4d" x="3480.564453"/>
     <use xlink:href="#DejaVuSans-6f" x="3566.84375"/>
     <use xlink:href="#DejaVuSans-73" x="3628.025391"/>
     <use xlink:href="#DejaVuSans-74" x="3680.125"/>
     <use xlink:href="#DejaVuSans-6c" x="3719.333984"/>
     <use xlink:href="#DejaVuSans-79" x="3747.117188"/>
     <use xlink:href="#DejaVuSans-20" x="3806.296875"/>
     <use xlink:href="#DejaVuSans-41" x="3838.083984"/>
     <use xlink:href="#DejaVuSans-64" x="3904.742188"/>
     <use xlink:href="#DejaVuSans-64" x="3968.21875"/>
     <use xlink:href="#DejaVuSans-73" x="4031.695312"/>
     <use xlink:href="#DejaVuSans-20" x="4083.794922"/>
     <use xlink:href="#DejaVuSans-4e" x="4115.582031"/>
     <use xlink:href="#DejaVuSans-6f" x="4190.386719"/>
     <use xlink:href="#DejaVuSans-69" x="4251.568359"/>
     <use xlink:href="#DejaVuSans-73" x="4279.351562"/>
     <use xlink:href="#DejaVuSans-65" x="4331.451172"/>
    </g>
   </g>
  </g>
  <g id="axes_2">
   <g id="patch_13">
    <path d="M 44.749063 458.557869 
L 698.401562 458.557869 
L 698.401562 273.997882 
L 44.749063 273.997882 
z
" style="fill: #ffffff"/>
   </g>
   <g id="patch_14">
    <path d="M 74.46054 458.557869 
L 156.423236 458.557869 
L 156.423236 386.291659 
L 74.46054 386.291659 
z
" clip-path="url(#pf494ffef09)" style="fill: #8ecae6; opacity: 0.85"/>
   </g>
   <g id="patch_15">
    <path d="M 176.91391 458.557869 
L 258.876606 458.557869 
L 258.876606 343.33804 
L 176.91391 343.33804 
z
" clip-path="url(#pf494ffef09)" style="fill: #8ecae6; opacity: 0.85"/>
   </g>
   <g id="patch_16">
    <path d="M 279.36728 458.557869 
L 361.329976 458.557869 
L 361.329976 458.557869 
L 279.36728 458.557869 
z
" clip-path="url(#pf494ffef09)" style="fill: #8ecae6; opacity: 0.85"/>
   </g>
   <g id="patch_17">
    <path d="M 381.820649 458.557869 
L 463.783345 458.557869 
L 463.783345 316.784893 
L 381.820649 316.784893 
z
" clip-path="url(#pf494ffef09)" style="fill: #8ecae6; opacity: 0.85"/>
   </g>
   <g id="patch_18">
    <path d="M 484.274019 458.557869 
L 566.236715 458.557869 
L 566.236715 319.908793 
L 484.274019 319.908793 
z
" clip-path="url(#pf494ffef09)" style="fill: #8ecae6; opacity: 0.85"/>
   </g>
   <g id="patch_19">
    <path d="M 586.727389 458.557869 
L 668.690085 458.557869 
L 668.690085 282.786453 
L 586.727389 282.786453 
z
" clip-path="url(#pf494ffef09)" style="fill: #8ecae6; opacity: 0.85"/>
   </g>
   <g id="matplotlib.axis_3">
    <g id="xtick_7">
     <g id="line2d_25">
      <g>
       <use xlink:href="#me42aebae39" x="115.441888" y="458.557869" style="stroke: #000000; stroke-width: 0.8"/>
      </g>
     </g>
     <g id="text_18">
      <!-- Site+task only -->
      <g transform="translate(81.600337 495.330099) rotate(-18) scale(0.1 -0.1)">
       <defs>
        <path id="DejaVuSans-2b" d="M 2944 4013 
L 2944 2272 
L 4684 2272 
L 4684 1741 
L 2944 1741 
L 2944 0 
L 2419 0 
L 2419 1741 
L 678 1741 
L 678 2272 
L 2419 2272 
L 2419 4013 
L 2944 4013 
z
" transform="scale(0.015625)"/>
       </defs>
       <use xlink:href="#DejaVuSans-53"/>
       <use xlink:href="#DejaVuSans-69" x="63.476562"/>
       <use xlink:href="#DejaVuSans-74" x="91.259766"/>
       <use xlink:href="#DejaVuSans-65" x="130.46875"/>
       <use xlink:href="#DejaVuSans-2b" x="191.992188"/>
       <use xlink:href="#DejaVuSans-74" x="275.78125"/>
       <use xlink:href="#DejaVuSans-61" x="314.990234"/>
       <use xlink:href="#DejaVuSans-73" x="376.269531"/>
       <use xlink:href="#DejaVuSans-6b" x="428.369141"/>
       <use xlink:href="#DejaVuSans-20" x="486.279297"/>
       <use xlink:href="#DejaVuSans-6f" x="518.066406"/>
       <use xlink:href="#DejaVuSans-6e" x="579.248047"/>
       <use xlink:href="#DejaVuSans-6c" x="642.626953"/>
       <use xlink:href="#DejaVuSans-79" x="670.410156"/>
      </g>
     </g>
    </g>
    <g id="xtick_8">
     <g id="line2d_26">
      <g>
       <use xlink:href="#me42aebae39" x="217.895258" y="458.557869" style="stroke: #000000; stroke-width: 0.8"/>
      </g>
     </g>
     <g id="text_19">
      <!-- Site only -->
      <g transform="translate(198.047612 486.236308) rotate(-18) scale(0.1 -0.1)">
       <use xlink:href="#DejaVuSans-53"/>
       <use xlink:href="#DejaVuSans-69" x="63.476562"/>
       <use xlink:href="#DejaVuSans-74" x="91.259766"/>
       <use xlink:href="#DejaVuSans-65" x="130.46875"/>
       <use xlink:href="#DejaVuSans-20" x="191.992188"/>
       <use xlink:href="#DejaVuSans-6f" x="223.779297"/>
       <use xlink:href="#DejaVuSans-6e" x="284.960938"/>
       <use xlink:href="#DejaVuSans-6c" x="348.339844"/>
       <use xlink:href="#DejaVuSans-79" x="376.123047"/>
      </g>
     </g>
    </g>
    <g id="xtick_9">
     <g id="line2d_27">
      <g>
       <use xlink:href="#me42aebae39" x="320.348628" y="458.557869" style="stroke: #000000; stroke-width: 0.8"/>
      </g>
     </g>
     <g id="text_20">
      <!-- Family only -->
      <g transform="translate(294.327288 490.248218) rotate(-18) scale(0.1 -0.1)">
       <use xlink:href="#DejaVuSans-46"/>
       <use xlink:href="#DejaVuSans-61" x="48.394531"/>
       <use xlink:href="#DejaVuSans-6d" x="109.673828"/>
       <use xlink:href="#DejaVuSans-69" x="207.085938"/>
       <use xlink:href="#DejaVuSans-6c" x="234.869141"/>
       <use xlink:href="#DejaVuSans-79" x="262.652344"/>
       <use xlink:href="#DejaVuSans-20" x="321.832031"/>
       <use xlink:href="#DejaVuSans-6f" x="353.619141"/>
       <use xlink:href="#DejaVuSans-6e" x="414.800781"/>
       <use xlink:href="#DejaVuSans-6c" x="478.179688"/>
       <use xlink:href="#DejaVuSans-79" x="505.962891"/>
      </g>
     </g>
    </g>
    <g id="xtick_10">
     <g id="line2d_28">
      <g>
       <use xlink:href="#me42aebae39" x="422.801997" y="458.557869" style="stroke: #000000; stroke-width: 0.8"/>
      </g>
     </g>
     <g id="text_21">
      <!-- Site+task -&gt; site (r&gt;=0.5) -->
      <g transform="translate(360.510483 513.818006) rotate(-18) scale(0.1 -0.1)">
       <defs>
        <path id="DejaVuSans-2d" d="M 313 2009 
L 1997 2009 
L 1997 1497 
L 313 1497 
L 313 2009 
z
" transform="scale(0.015625)"/>
        <path id="DejaVuSans-3e" d="M 678 3150 
L 678 3719 
L 4684 2266 
L 4684 1747 
L 678 294 
L 678 863 
L 3897 2003 
L 678 3150 
z
" transform="scale(0.015625)"/>
        <path id="DejaVuSans-3d" d="M 678 2906 
L 4684 2906 
L 4684 2381 
L 678 2381 
L 678 2906 
z
M 678 1631 
L 4684 1631 
L 4684 1100 
L 678 1100 
L 678 1631 
z
" transform="scale(0.015625)"/>
       </defs>
       <use xlink:href="#DejaVuSans-53"/>
       <use xlink:href="#DejaVuSans-69" x="63.476562"/>
       <use xlink:href="#DejaVuSans-74" x="91.259766"/>
       <use xlink:href="#DejaVuSans-65" x="130.46875"/>
       <use xlink:href="#DejaVuSans-2b" x="191.992188"/>
       <use xlink:href="#DejaVuSans-74" x="275.78125"/>
       <use xlink:href="#DejaVuSans-61" x="314.990234"/>
       <use xlink:href="#DejaVuSans-73" x="376.269531"/>
       <use xlink:href="#DejaVuSans-6b" x="428.369141"/>
       <use xlink:href="#DejaVuSans-20" x="486.279297"/>
       <use xlink:href="#DejaVuSans-2d" x="518.066406"/>
       <use xlink:href="#DejaVuSans-3e" x="554.150391"/>
       <use xlink:href="#DejaVuSans-20" x="637.939453"/>
       <use xlink:href="#DejaVuSans-73" x="669.726562"/>
       <use xlink:href="#DejaVuSans-69" x="721.826172"/>
       <use xlink:href="#DejaVuSans-74" x="749.609375"/>
       <use xlink:href="#DejaVuSans-65" x="788.818359"/>
       <use xlink:href="#DejaVuSans-20" x="850.341797"/>
       <use xlink:href="#DejaVuSans-28" x="882.128906"/>
       <use xlink:href="#DejaVuSans-72" x="921.142578"/>
       <use xlink:href="#DejaVuSans-3e" x="962.255859"/>
       <use xlink:href="#DejaVuSans-3d" x="1046.044922"/>
       <use xlink:href="#DejaVuSans-30" x="1129.833984"/>
       <use xlink:href="#DejaVuSans-2e" x="1193.457031"/>
       <use xlink:href="#DejaVuSans-35" x="1225.244141"/>
       <use xlink:href="#DejaVuSans-29" x="1288.867188"/>
      </g>
     </g>
    </g>
    <g id="xtick_11">
     <g id="line2d_29">
      <g>
       <use xlink:href="#me42aebae39" x="525.255367" y="458.557869" style="stroke: #000000; stroke-width: 0.8"/>
      </g>
     </g>
     <g id="text_22">
      <!-- Site+task -&gt; site (r&gt;=0.7) -->
      <g transform="translate(462.963853 513.818006) rotate(-18) scale(0.1 -0.1)">
       <defs>
        <path id="DejaVuSans-37" d="M 525 4666 
L 3525 4666 
L 3525 4397 
L 1831 0 
L 1172 0 
L 2766 4134 
L 525 4134 
L 525 4666 
z
" transform="scale(0.015625)"/>
       </defs>
       <use xlink:href="#DejaVuSans-53"/>
       <use xlink:href="#DejaVuSans-69" x="63.476562"/>
       <use xlink:href="#DejaVuSans-74" x="91.259766"/>
       <use xlink:href="#DejaVuSans-65" x="130.46875"/>
       <use xlink:href="#DejaVuSans-2b" x="191.992188"/>
       <use xlink:href="#DejaVuSans-74" x="275.78125"/>
       <use xlink:href="#DejaVuSans-61" x="314.990234"/>
       <use xlink:href="#DejaVuSans-73" x="376.269531"/>
       <use xlink:href="#DejaVuSans-6b" x="428.369141"/>
       <use xlink:href="#DejaVuSans-20" x="486.279297"/>
       <use xlink:href="#DejaVuSans-2d" x="518.066406"/>
       <use xlink:href="#DejaVuSans-3e" x="554.150391"/>
       <use xlink:href="#DejaVuSans-20" x="637.939453"/>
       <use xlink:href="#DejaVuSans-73" x="669.726562"/>
       <use xlink:href="#DejaVuSans-69" x="721.826172"/>
       <use xlink:href="#DejaVuSans-74" x="749.609375"/>
       <use xlink:href="#DejaVuSans-65" x="788.818359"/>
       <use xlink:href="#DejaVuSans-20" x="850.341797"/>
       <use xlink:href="#DejaVuSans-28" x="882.128906"/>
       <use xlink:href="#DejaVuSans-72" x="921.142578"/>
       <use xlink:href="#DejaVuSans-3e" x="962.255859"/>
       <use xlink:href="#DejaVuSans-3d" x="1046.044922"/>
       <use xlink:href="#DejaVuSans-30" x="1129.833984"/>
       <use xlink:href="#DejaVuSans-2e" x="1193.457031"/>
       <use xlink:href="#DejaVuSans-37" x="1225.244141"/>
       <use xlink:href="#DejaVuSans-29" x="1288.867188"/>
      </g>
     </g>
    </g>
    <g id="xtick_12">
     <g id="line2d_30">
      <g>
       <use xlink:href="#me42aebae39" x="627.708737" y="458.557869" style="stroke: #000000; stroke-width: 0.8"/>
      </g>
     </g>
     <g id="text_23">
      <!-- Site+task -&gt; site -&gt; family -->
      <g transform="translate(564.72622 514.267046) rotate(-18) scale(0.1 -0.1)">
       <defs>
        <path id="DejaVuSans-66" d="M 2375 4863 
L 2375 4384 
L 1825 4384 
Q 1516 4384 1395 4259 
Q 1275 4134 1275 3809 
L 1275 3500 
L 2222 3500 
L 2222 3053 
L 1275 3053 
L 1275 0 
L 697 0 
L 697 3053 
L 147 3053 
L 147 3500 
L 697 3500 
L 697 3744 
Q 697 4328 969 4595 
Q 1241 4863 1831 4863 
L 2375 4863 
z
" transform="scale(0.015625)"/>
       </defs>
       <use xlink:href="#DejaVuSans-53"/>
       <use xlink:href="#DejaVuSans-69" x="63.476562"/>
       <use xlink:href="#DejaVuSans-74" x="91.259766"/>
       <use xlink:href="#DejaVuSans-65" x="130.46875"/>
       <use xlink:href="#DejaVuSans-2b" x="191.992188"/>
       <use xlink:href="#DejaVuSans-74" x="275.78125"/>
       <use xlink:href="#DejaVuSans-61" x="314.990234"/>
       <use xlink:href="#DejaVuSans-73" x="376.269531"/>
       <use xlink:href="#DejaVuSans-6b" x="428.369141"/>
       <use xlink:href="#DejaVuSans-20" x="486.279297"/>
       <use xlink:href="#DejaVuSans-2d" x="518.066406"/>
       <use xlink:href="#DejaVuSans-3e" x="554.150391"/>
       <use xlink:href="#DejaVuSans-20" x="637.939453"/>
       <use xlink:href="#DejaVuSans-73" x="669.726562"/>
       <use xlink:href="#DejaVuSans-69" x="721.826172"/>
       <use xlink:href="#DejaVuSans-74" x="749.609375"/>
       <use xlink:href="#DejaVuSans-65" x="788.818359"/>
       <use xlink:href="#DejaVuSans-20" x="850.341797"/>
       <use xlink:href="#DejaVuSans-2d" x="882.128906"/>
       <use xlink:href="#DejaVuSans-3e" x="918.212891"/>
       <use xlink:href="#DejaVuSans-20" x="1002.001953"/>
       <use xlink:href="#DejaVuSans-66" x="1033.789062"/>
       <use xlink:href="#DejaVuSans-61" x="1068.994141"/>
       <use xlink:href="#DejaVuSans-6d" x="1130.273438"/>
       <use xlink:href="#DejaVuSans-69" x="1227.685547"/>
       <use xlink:href="#DejaVuSans-6c" x="1255.46875"/>
       <use xlink:href="#DejaVuSans-79" x="1283.251953"/>
      </g>
     </g>
    </g>
   </g>
   <g id="matplotlib.axis_4">
    <g id="ytick_10">
     <g id="line2d_31">
      <path d="M 44.749063 458.557869 
L 698.401562 458.557869 
" clip-path="url(#pf494ffef09)" style="fill: none; stroke: #b0b0b0; stroke-opacity: 0.25; stroke-width: 0.8; stroke-linecap: square"/>
     </g>
     <g id="line2d_32">
      <g>
       <use xlink:href="#m9bf9060949" x="44.749063" y="458.557869" style="stroke: #000000; stroke-width: 0.8"/>
      </g>
     </g>
     <g id="text_24">
      <!-- 0 -->
      <g transform="translate(31.386563 462.357087) scale(0.1 -0.1)">
       <use xlink:href="#DejaVuSans-30"/>
      </g>
     </g>
    </g>
    <g id="ytick_11">
     <g id="line2d_33">
      <path d="M 44.749063 432.525372 
L 698.401562 432.525372 
" clip-path="url(#pf494ffef09)" style="fill: none; stroke: #b0b0b0; stroke-opacity: 0.25; stroke-width: 0.8; stroke-linecap: square"/>
     </g>
     <g id="line2d_34">
      <g>
       <use xlink:href="#m9bf9060949" x="44.749063" y="432.525372" style="stroke: #000000; stroke-width: 0.8"/>
      </g>
     </g>
     <g id="text_25">
      <!-- 5 -->
      <g transform="translate(31.386563 436.324591) scale(0.1 -0.1)">
       <use xlink:href="#DejaVuSans-35"/>
      </g>
     </g>
    </g>
    <g id="ytick_12">
     <g id="line2d_35">
      <path d="M 44.749063 406.492876 
L 698.401562 406.492876 
" clip-path="url(#pf494ffef09)" style="fill: none; stroke: #b0b0b0; stroke-opacity: 0.25; stroke-width: 0.8; stroke-linecap: square"/>
     </g>
     <g id="line2d_36">
      <g>
       <use xlink:href="#m9bf9060949" x="44.749063" y="406.492876" style="stroke: #000000; stroke-width: 0.8"/>
      </g>
     </g>
     <g id="text_26">
      <!-- 10 -->
      <g transform="translate(25.024063 410.292095) scale(0.1 -0.1)">
       <use xlink:href="#DejaVuSans-31"/>
       <use xlink:href="#DejaVuSans-30" x="63.623047"/>
      </g>
     </g>
    </g>
    <g id="ytick_13">
     <g id="line2d_37">
      <path d="M 44.749063 380.460379 
L 698.401562 380.460379 
" clip-path="url(#pf494ffef09)" style="fill: none; stroke: #b0b0b0; stroke-opacity: 0.25; stroke-width: 0.8; stroke-linecap: square"/>
     </g>
     <g id="line2d_38">
      <g>
       <use xlink:href="#m9bf9060949" x="44.749063" y="380.460379" style="stroke: #000000; stroke-width: 0.8"/>
      </g>
     </g>
     <g id="text_27">
      <!-- 15 -->
      <g transform="translate(25.024063 384.259598) scale(0.1 -0.1)">
       <use xlink:href="#DejaVuSans-31"/>
       <use xlink:href="#DejaVuSans-35" x="63.623047"/>
      </g>
     </g>
    </g>
    <g id="ytick_14">
     <g id="line2d_39">
      <path d="M 44.749063 354.427883 
L 698.401562 354.427883 
" clip-path="url(#pf494ffef09)" style="fill: none; stroke: #b0b0b0; stroke-opacity: 0.25; stroke-width: 0.8; stroke-linecap: square"/>
     </g>
     <g id="line2d_40">
      <g>
       <use xlink:href="#m9bf9060949" x="44.749063" y="354.427883" style="stroke: #000000; stroke-width: 0.8"/>
      </g>
     </g>
     <g id="text_28">
      <!-- 20 -->
      <g transform="translate(25.024063 358.227102) scale(0.1 -0.1)">
       <use xlink:href="#DejaVuSans-32"/>
       <use xlink:href="#DejaVuSans-30" x="63.623047"/>
      </g>
     </g>
    </g>
    <g id="ytick_15">
     <g id="line2d_41">
      <path d="M 44.749063 328.395387 
L 698.401562 328.395387 
" clip-path="url(#pf494ffef09)" style="fill: none; stroke: #b0b0b0; stroke-opacity: 0.25; stroke-width: 0.8; stroke-linecap: square"/>
     </g>
     <g id="line2d_42">
      <g>
       <use xlink:href="#m9bf9060949" x="44.749063" y="328.395387" style="stroke: #000000; stroke-width: 0.8"/>
      </g>
     </g>
     <g id="text_29">
      <!-- 25 -->
      <g transform="translate(25.024063 332.194605) scale(0.1 -0.1)">
       <use xlink:href="#DejaVuSans-32"/>
       <use xlink:href="#DejaVuSans-35" x="63.623047"/>
      </g>
     </g>
    </g>
    <g id="ytick_16">
     <g id="line2d_43">
      <path d="M 44.749063 302.36289 
L 698.401562 302.36289 
" clip-path="url(#pf494ffef09)" style="fill: none; stroke: #b0b0b0; stroke-opacity: 0.25; stroke-width: 0.8; stroke-linecap: square"/>
     </g>
     <g id="line2d_44">
      <g>
       <use xlink:href="#m9bf9060949" x="44.749063" y="302.36289" style="stroke: #000000; stroke-width: 0.8"/>
      </g>
     </g>
     <g id="text_30">
      <!-- 30 -->
      <g transform="translate(25.024063 306.162109) scale(0.1 -0.1)">
       <use xlink:href="#DejaVuSans-33"/>
       <use xlink:href="#DejaVuSans-30" x="63.623047"/>
      </g>
     </g>
    </g>
    <g id="ytick_17">
     <g id="line2d_45">
      <path d="M 44.749063 276.330394 
L 698.401562 276.330394 
" clip-path="url(#pf494ffef09)" style="fill: none; stroke: #b0b0b0; stroke-opacity: 0.25; stroke-width: 0.8; stroke-linecap: square"/>
     </g>
     <g id="line2d_46">
      <g>
       <use xlink:href="#m9bf9060949" x="44.749063" y="276.330394" style="stroke: #000000; stroke-width: 0.8"/>
      </g>
     </g>
     <g id="text_31">
      <!-- 35 -->
      <g transform="translate(25.024063 280.129613) scale(0.1 -0.1)">
       <use xlink:href="#DejaVuSans-33"/>
       <use xlink:href="#DejaVuSans-35" x="63.623047"/>
      </g>
     </g>
    </g>
    <g id="text_32">
     <!-- Coverage (%) -->
     <g transform="translate(18.736406 403.896157) rotate(-90) scale(0.11 -0.11)">
      <use xlink:href="#DejaVuSans-43"/>
      <use xlink:href="#DejaVuSans-6f" x="69.824219"/>
      <use xlink:href="#DejaVuSans-76" x="131.005859"/>
      <use xlink:href="#DejaVuSans-65" x="190.185547"/>
      <use xlink:href="#DejaVuSans-72" x="251.708984"/>
      <use xlink:href="#DejaVuSans-61" x="292.822266"/>
      <use xlink:href="#DejaVuSans-67" x="354.101562"/>
      <use xlink:href="#DejaVuSans-65" x="417.578125"/>
      <use xlink:href="#DejaVuSans-20" x="479.101562"/>
      <use xlink:href="#DejaVuSans-28" x="510.888672"/>
      <use xlink:href="#DejaVuSans-25" x="549.902344"/>
      <use xlink:href="#DejaVuSans-29" x="644.921875"/>
     </g>
    </g>
   </g>
   <g id="patch_20">
    <path d="M 44.749063 458.557869 
L 44.749063 273.997882 
" style="fill: none; stroke: #000000; stroke-width: 0.8; stroke-linejoin: miter; stroke-linecap: square"/>
   </g>
   <g id="patch_21">
    <path d="M 698.401562 458.557869 
L 698.401562 273.997882 
" style="fill: none; stroke: #000000; stroke-width: 0.8; stroke-linejoin: miter; stroke-linecap: square"/>
   </g>
   <g id="patch_22">
    <path d="M 44.749063 458.557869 
L 698.401562 458.557869 
" style="fill: none; stroke: #000000; stroke-width: 0.8; stroke-linejoin: miter; stroke-linecap: square"/>
   </g>
   <g id="patch_23">
    <path d="M 44.749063 273.997882 
L 698.401562 273.997882 
" style="fill: none; stroke: #000000; stroke-width: 0.8; stroke-linejoin: miter; stroke-linecap: square"/>
   </g>
  </g>
  <g id="axes_3">
   <g id="matplotlib.axis_5">
    <g id="ytick_18">
     <g id="line2d_47">
      <defs>
       <path id="mc4d85ceb94" d="M 0 0 
L 3.5 0 
" style="stroke: #000000; stroke-width: 0.8"/>
      </defs>
      <g>
       <use xlink:href="#mc4d85ceb94" x="698.401562" y="458.557869" style="stroke: #000000; stroke-width: 0.8"/>
      </g>
     </g>
     <g id="text_33">
      <!-- 0 -->
      <g transform="translate(705.401562 462.357087) scale(0.1 -0.1)">
       <use xlink:href="#DejaVuSans-30"/>
      </g>
     </g>
    </g>
    <g id="ytick_19">
     <g id="line2d_48">
      <g>
       <use xlink:href="#mc4d85ceb94" x="698.401562" y="425.001507" style="stroke: #000000; stroke-width: 0.8"/>
      </g>
     </g>
     <g id="text_34">
      <!-- 20 -->
      <g transform="translate(705.401562 428.800726) scale(0.1 -0.1)">
       <use xlink:href="#DejaVuSans-32"/>
       <use xlink:href="#DejaVuSans-30" x="63.623047"/>
      </g>
     </g>
    </g>
    <g id="ytick_20">
     <g id="line2d_49">
      <g>
       <use xlink:href="#mc4d85ceb94" x="698.401562" y="391.445146" style="stroke: #000000; stroke-width: 0.8"/>
      </g>
     </g>
     <g id="text_35">
      <!-- 40 -->
      <g transform="translate(705.401562 395.244365) scale(0.1 -0.1)">
       <use xlink:href="#DejaVuSans-34"/>
       <use xlink:href="#DejaVuSans-30" x="63.623047"/>
      </g>
     </g>
    </g>
    <g id="ytick_21">
     <g id="line2d_50">
      <g>
       <use xlink:href="#mc4d85ceb94" x="698.401562" y="357.888785" style="stroke: #000000; stroke-width: 0.8"/>
      </g>
     </g>
     <g id="text_36">
      <!-- 60 -->
      <g transform="translate(705.401562 361.688004) scale(0.1 -0.1)">
       <use xlink:href="#DejaVuSans-36"/>
       <use xlink:href="#DejaVuSans-30" x="63.623047"/>
      </g>
     </g>
    </g>
    <g id="ytick_22">
     <g id="line2d_51">
      <g>
       <use xlink:href="#mc4d85ceb94" x="698.401562" y="324.332424" style="stroke: #000000; stroke-width: 0.8"/>
      </g>
     </g>
     <g id="text_37">
      <!-- 80 -->
      <g transform="translate(705.401562 328.131643) scale(0.1 -0.1)">
       <use xlink:href="#DejaVuSans-38"/>
       <use xlink:href="#DejaVuSans-30" x="63.623047"/>
      </g>
     </g>
    </g>
    <g id="ytick_23">
     <g id="line2d_52">
      <g>
       <use xlink:href="#mc4d85ceb94" x="698.401562" y="290.776063" style="stroke: #000000; stroke-width: 0.8"/>
      </g>
     </g>
     <g id="text_38">
      <!-- 100 -->
      <g transform="translate(705.401562 294.575282) scale(0.1 -0.1)">
       <use xlink:href="#DejaVuSans-31"/>
       <use xlink:href="#DejaVuSans-30" x="63.623047"/>
       <use xlink:href="#DejaVuSans-30" x="127.246094"/>
      </g>
     </g>
    </g>
    <g id="text_39">
     <!-- Macro Success (%) -->
     <g transform="translate(736.847344 418.074125) rotate(-90) scale(0.11 -0.11)">
      <use xlink:href="#DejaVuSans-4d"/>
      <use xlink:href="#DejaVuSans-61" x="86.279297"/>
      <use xlink:href="#DejaVuSans-63" x="147.558594"/>
      <use xlink:href="#DejaVuSans-72" x="202.539062"/>
      <use xlink:href="#DejaVuSans-6f" x="241.402344"/>
      <use xlink:href="#DejaVuSans-20" x="302.583984"/>
      <use xlink:href="#DejaVuSans-53" x="334.371094"/>
      <use xlink:href="#DejaVuSans-75" x="397.847656"/>
      <use xlink:href="#DejaVuSans-63" x="461.226562"/>
      <use xlink:href="#DejaVuSans-63" x="516.207031"/>
      <use xlink:href="#DejaVuSans-65" x="571.1875"/>
      <use xlink:href="#DejaVuSans-73" x="632.710938"/>
      <use xlink:href="#DejaVuSans-73" x="684.810547"/>
      <use xlink:href="#DejaVuSans-20" x="736.910156"/>
      <use xlink:href="#DejaVuSans-28" x="768.697266"/>
      <use xlink:href="#DejaVuSans-25" x="807.710938"/>
      <use xlink:href="#DejaVuSans-29" x="902.730469"/>
     </g>
    </g>
   </g>
   <g id="line2d_53">
    <path d="M 115.441888 314.752083 
L 217.895258 349.986262 
L 320.348628 458.557869 
L 422.801997 330.724911 
L 525.255367 324.332424 
L 627.708737 339.181114 
" clip-path="url(#pf494ffef09)" style="fill: none; stroke: #264653; stroke-width: 2; stroke-linecap: square"/>
    <defs>
     <path id="m7b62341b94" d="M 0 3 
C 0.795609 3 1.55874 2.683901 2.12132 2.12132 
C 2.683901 1.55874 3 0.795609 3 0 
C 3 -0.795609 2.683901 -1.55874 2.12132 -2.12132 
C 1.55874 -2.683901 0.795609 -3 0 -3 
C -0.795609 -3 -1.55874 -2.683901 -2.12132 -2.12132 
C -2.683901 -1.55874 -3 -0.795609 -3 0 
C -3 0.795609 -2.683901 1.55874 -2.12132 2.12132 
C -1.55874 2.683901 -0.795609 3 0 3 
z
" style="stroke: #264653"/>
    </defs>
    <g clip-path="url(#pf494ffef09)">
     <use xlink:href="#m7b62341b94" x="115.441888" y="314.752083" style="fill: #264653; stroke: #264653"/>
     <use xlink:href="#m7b62341b94" x="217.895258" y="349.986262" style="fill: #264653; stroke: #264653"/>
     <use xlink:href="#m7b62341b94" x="320.348628" y="458.557869" style="fill: #264653; stroke: #264653"/>
     <use xlink:href="#m7b62341b94" x="422.801997" y="330.724911" style="fill: #264653; stroke: #264653"/>
     <use xlink:href="#m7b62341b94" x="525.255367" y="324.332424" style="fill: #264653; stroke: #264653"/>
     <use xlink:href="#m7b62341b94" x="627.708737" y="339.181114" style="fill: #264653; stroke: #264653"/>
    </g>
   </g>
   <g id="patch_24">
    <path d="M 44.749063 458.557869 
L 44.749063 273.997882 
" style="fill: none; stroke: #000000; stroke-width: 0.8; stroke-linejoin: miter; stroke-linecap: square"/>
   </g>
   <g id="patch_25">
    <path d="M 698.401562 458.557869 
L 698.401562 273.997882 
" style="fill: none; stroke: #000000; stroke-width: 0.8; stroke-linejoin: miter; stroke-linecap: square"/>
   </g>
   <g id="patch_26">
    <path d="M 44.749063 458.557869 
L 698.401562 458.557869 
" style="fill: none; stroke: #000000; stroke-width: 0.8; stroke-linejoin: miter; stroke-linecap: square"/>
   </g>
   <g id="patch_27">
    <path d="M 44.749063 273.997882 
L 698.401562 273.997882 
" style="fill: none; stroke: #000000; stroke-width: 0.8; stroke-linejoin: miter; stroke-linecap: square"/>
   </g>
   <g id="text_40">
    <!-- 85.7% -->
    <g style="fill: #264653" transform="translate(102.735013 308.054879) scale(0.08 -0.08)">
     <use xlink:href="#DejaVuSans-38"/>
     <use xlink:href="#DejaVuSans-35" x="63.623047"/>
     <use xlink:href="#DejaVuSans-2e" x="127.246094"/>
     <use xlink:href="#DejaVuSans-37" x="159.033203"/>
     <use xlink:href="#DejaVuSans-25" x="222.65625"/>
    </g>
   </g>
   <g id="text_41">
    <!-- 64.7% -->
    <g style="fill: #264653" transform="translate(205.188383 343.289058) scale(0.08 -0.08)">
     <use xlink:href="#DejaVuSans-36"/>
     <use xlink:href="#DejaVuSans-34" x="63.623047"/>
     <use xlink:href="#DejaVuSans-2e" x="127.246094"/>
     <use xlink:href="#DejaVuSans-37" x="159.033203"/>
     <use xlink:href="#DejaVuSans-25" x="222.65625"/>
    </g>
   </g>
   <g id="text_42">
    <!-- 0.0% -->
    <g style="fill: #264653" transform="translate(310.186753 451.860664) scale(0.08 -0.08)">
     <use xlink:href="#DejaVuSans-30"/>
     <use xlink:href="#DejaVuSans-2e" x="63.623047"/>
     <use xlink:href="#DejaVuSans-30" x="95.410156"/>
     <use xlink:href="#DejaVuSans-25" x="159.033203"/>
    </g>
   </g>
   <g id="text_43">
    <!-- 76.2% -->
    <g style="fill: #264653" transform="translate(410.095122 324.027707) scale(0.08 -0.08)">
     <use xlink:href="#DejaVuSans-37"/>
     <use xlink:href="#DejaVuSans-36" x="63.623047"/>
     <use xlink:href="#DejaVuSans-2e" x="127.246094"/>
     <use xlink:href="#DejaVuSans-32" x="159.033203"/>
     <use xlink:href="#DejaVuSans-25" x="222.65625"/>
    </g>
   </g>
   <g id="text_44">
    <!-- 80.0% -->
    <g style="fill: #264653" transform="translate(512.548492 317.63522) scale(0.08 -0.08)">
     <use xlink:href="#DejaVuSans-38"/>
     <use xlink:href="#DejaVuSans-30" x="63.623047"/>
     <use xlink:href="#DejaVuSans-2e" x="127.246094"/>
     <use xlink:href="#DejaVuSans-30" x="159.033203"/>
     <use xlink:href="#DejaVuSans-25" x="222.65625"/>
    </g>
   </g>
   <g id="text_45">
    <!-- 71.2% -->
    <g style="fill: #264653" transform="translate(615.001862 332.48391) scale(0.08 -0.08)">
     <use xlink:href="#DejaVuSans-37"/>
     <use xlink:href="#DejaVuSans-31" x="63.623047"/>
     <use xlink:href="#DejaVuSans-2e" x="127.246094"/>
     <use xlink:href="#DejaVuSans-32" x="159.033203"/>
     <use xlink:href="#DejaVuSans-25" x="222.65625"/>
    </g>
   </g>
  </g>
 </g>
 <defs>
  <clipPath id="pdb770ae339">
   <rect x="44.749063" y="23.837813" width="653.6525" height="230.699983"/>
  </clipPath>
  <clipPath id="pf494ffef09">
   <rect x="44.749063" y="273.997882" width="653.6525" height="184.559986"/>
  </clipPath>
 </defs>
</svg>
